solid Exported from Blender-2.80 (sub 75)
facet normal -0.973167 -0.230100 0.000000
outer loop
vertex -0.763556 0.000000 17.500454
vertex -1.000000 1.000000 17.500454
vertex -1.000000 1.000000 -17.500454
endloop
endfacet
facet normal -0.973167 -0.230100 0.000000
outer loop
vertex -0.763556 0.000000 17.500454
vertex -1.000000 1.000000 -17.500454
vertex -0.763556 0.000000 -17.500454
endloop
endfacet
facet normal -0.286900 0.957960 0.000000
outer loop
vertex 0.000000 0.700509 17.500454
vertex 1.000000 1.000000 17.500454
vertex 1.000000 1.000000 -17.500454
endloop
endfacet
facet normal -0.286900 0.957960 0.000000
outer loop
vertex 0.000000 0.700509 17.500454
vertex 1.000000 1.000000 -17.500454
vertex 0.000000 0.700509 -17.500454
endloop
endfacet
facet normal 0.973167 0.230100 0.000000
outer loop
vertex 0.763556 0.000000 17.500454
vertex 1.000000 -1.000000 17.500454
vertex 1.000000 -1.000000 -17.500454
endloop
endfacet
facet normal 0.973167 0.230100 0.000000
outer loop
vertex 0.763556 0.000000 17.500454
vertex 1.000000 -1.000000 -17.500454
vertex 0.763556 0.000000 -17.500454
endloop
endfacet
facet normal 0.286900 -0.957960 0.000000
outer loop
vertex 0.000000 -0.700509 17.500454
vertex -1.000000 -1.000000 17.500454
vertex -1.000000 -1.000000 -17.500454
endloop
endfacet
facet normal 0.286900 -0.957960 0.000000
outer loop
vertex 0.000000 -0.700509 17.500454
vertex -1.000000 -1.000000 -17.500454
vertex 0.000000 -0.700509 -17.500454
endloop
endfacet
facet normal -0.000001 0.000000 1.000000
outer loop
vertex 0.000000 0.000000 17.500454
vertex 0.000000 -0.700509 17.500454
vertex 1.000000 -1.000000 17.500454
endloop
endfacet
facet normal 0.000000 0.000000 1.000000
outer loop
vertex 0.000000 0.000000 17.500454
vertex 1.000000 -1.000000 17.500454
vertex 0.763556 0.000000 17.500454
endloop
endfacet
facet normal 0.000001 0.000000 -1.000000
outer loop
vertex 0.000000 0.000000 -17.500454
vertex 0.000000 -0.700509 -17.500454
vertex -1.000000 -1.000000 -17.500454
endloop
endfacet
facet normal 0.000000 0.000000 -1.000000
outer loop
vertex 0.000000 0.000000 -17.500454
vertex -1.000000 -1.000000 -17.500454
vertex -0.763556 0.000000 -17.500454
endloop
endfacet
facet normal -0.000001 0.000000 -1.000000
outer loop
vertex 0.763556 0.000000 -17.500454
vertex 1.000000 -1.000000 -17.500454
vertex 0.000000 -0.700509 -17.500454
endloop
endfacet
facet normal 0.000000 0.000000 -1.000000
outer loop
vertex 0.763556 0.000000 -17.500454
vertex 0.000000 -0.700509 -17.500454
vertex 0.000000 0.000000 -17.500454
endloop
endfacet
facet normal 0.000001 0.000000 1.000000
outer loop
vertex -0.763556 0.000000 17.500454
vertex -1.000000 -1.000000 17.500454
vertex 0.000000 -0.700509 17.500454
endloop
endfacet
facet normal 0.000000 0.000000 1.000000
outer loop
vertex -0.763556 0.000000 17.500454
vertex 0.000000 -0.700509 17.500454
vertex 0.000000 0.000000 17.500454
endloop
endfacet
facet normal -0.286900 -0.957960 0.000000
outer loop
vertex 1.000000 -1.000000 17.500454
vertex 0.000000 -0.700509 17.500454
vertex 0.000000 -0.700509 -17.500454
endloop
endfacet
facet normal -0.286900 -0.957960 0.000000
outer loop
vertex 1.000000 -1.000000 17.500454
vertex 0.000000 -0.700509 -17.500454
vertex 1.000000 -1.000000 -17.500454
endloop
endfacet
facet normal 0.286900 0.957960 0.000000
outer loop
vertex -1.000000 1.000000 17.500454
vertex 0.000000 0.700509 17.500454
vertex 0.000000 0.700509 -17.500454
endloop
endfacet
facet normal 0.286900 0.957960 0.000000
outer loop
vertex -1.000000 1.000000 17.500454
vertex 0.000000 0.700509 -17.500454
vertex -1.000000 1.000000 -17.500454
endloop
endfacet
facet normal 0.000000 0.000000 1.000000
outer loop
vertex -1.000000 1.000000 17.500454
vertex -0.763556 0.000000 17.500454
vertex 0.000000 0.000000 17.500454
endloop
endfacet
facet normal 0.000000 0.000000 1.000000
outer loop
vertex -1.000000 1.000000 17.500454
vertex 0.000000 0.000000 17.500454
vertex 0.000000 0.700509 17.500454
endloop
endfacet
facet normal 0.000000 0.000000 -1.000000
outer loop
vertex 1.000000 1.000000 -17.500454
vertex 0.763556 0.000000 -17.500454
vertex 0.000000 0.000000 -17.500454
endloop
endfacet
facet normal 0.000000 0.000000 -1.000000
outer loop
vertex 1.000000 1.000000 -17.500454
vertex 0.000000 0.000000 -17.500454
vertex 0.000000 0.700509 -17.500454
endloop
endfacet
facet normal 0.000000 0.000000 -1.000000
outer loop
vertex 0.000000 0.700509 -17.500454
vertex 0.000000 0.000000 -17.500454
vertex -0.763556 0.000000 -17.500454
endloop
endfacet
facet normal 0.000000 0.000000 -1.000000
outer loop
vertex 0.000000 0.700509 -17.500454
vertex -0.763556 0.000000 -17.500454
vertex -1.000000 1.000000 -17.500454
endloop
endfacet
facet normal 0.000000 0.000000 1.000000
outer loop
vertex 0.000000 0.700509 17.500454
vertex 0.000000 0.000000 17.500454
vertex 0.763556 0.000000 17.500454
endloop
endfacet
facet normal 0.000000 0.000000 1.000000
outer loop
vertex 0.000000 0.700509 17.500454
vertex 0.763556 0.000000 17.500454
vertex 1.000000 1.000000 17.500454
endloop
endfacet
facet normal 0.973167 -0.230100 0.000000
outer loop
vertex 1.000000 1.000000 17.500454
vertex 0.763556 0.000000 17.500454
vertex 0.763556 0.000000 -17.500454
endloop
endfacet
facet normal 0.973167 -0.230100 0.000000
outer loop
vertex 1.000000 1.000000 17.500454
vertex 0.763556 0.000000 -17.500454
vertex 1.000000 1.000000 -17.500454
endloop
endfacet
facet normal -0.973167 0.230100 0.000000
outer loop
vertex -1.000000 -1.000000 17.500454
vertex -0.763556 0.000000 17.500454
vertex -0.763556 0.000000 -17.500454
endloop
endfacet
facet normal -0.973167 0.230100 0.000000
outer loop
vertex -1.000000 -1.000000 17.500454
vertex -0.763556 0.000000 -17.500454
vertex -1.000000 -1.000000 -17.500454
endloop
endfacet
endsolid Exported from Blender-2.80 (sub 75)
