solid Exported from Blender-2.80 (sub 75)
facet normal 0.000000 0.000000 -1.000000
outer loop
vertex 0.286179 -0.267432 -3.849568
vertex -0.286179 -0.267432 -3.849568
vertex -0.286179 0.267432 -3.849568
endloop
endfacet
facet normal 0.000000 0.000000 -1.000000
outer loop
vertex 0.286179 -0.267432 -3.849568
vertex -0.286179 0.267432 -3.849568
vertex 0.286179 0.267432 -3.849568
endloop
endfacet
facet normal 0.000000 1.000000 0.000000
outer loop
vertex 0.286179 0.267432 -3.102155
vertex 0.286179 0.267432 -3.849568
vertex -0.286179 0.267432 -3.849568
endloop
endfacet
facet normal 0.000000 1.000000 0.000000
outer loop
vertex 0.286179 0.267432 -3.102155
vertex -0.286179 0.267432 -3.849568
vertex -0.286179 0.267432 -3.102155
endloop
endfacet
facet normal -1.000000 0.000000 0.000000
outer loop
vertex -0.286179 0.267432 -3.102155
vertex -0.286179 0.267432 -3.849568
vertex -0.286179 -0.267432 -3.849568
endloop
endfacet
facet normal -1.000000 0.000000 0.000000
outer loop
vertex -0.286179 0.267432 -3.102155
vertex -0.286179 -0.267432 -3.849568
vertex -0.286179 -0.267432 -3.102155
endloop
endfacet
facet normal 0.000000 0.000000 1.000000
outer loop
vertex -0.286179 -0.267432 3.849568
vertex 0.286179 -0.267432 3.849568
vertex 0.286179 0.267432 3.849568
endloop
endfacet
facet normal 0.000000 0.000000 1.000000
outer loop
vertex -0.286179 -0.267432 3.849568
vertex 0.286179 0.267432 3.849568
vertex -0.286179 0.267432 3.849568
endloop
endfacet
facet normal 1.000000 0.000000 0.000000
outer loop
vertex 0.286179 -0.267432 -3.102155
vertex 0.286179 -0.267432 -3.849568
vertex 0.286179 0.267432 -3.849568
endloop
endfacet
facet normal 1.000000 0.000000 0.000000
outer loop
vertex 0.286179 -0.267432 -3.102155
vertex 0.286179 0.267432 -3.849568
vertex 0.286179 0.267432 -3.102155
endloop
endfacet
facet normal 0.000000 -1.000000 0.000000
outer loop
vertex -0.286179 -0.267432 -3.102155
vertex -0.286179 -0.267432 -3.849568
vertex 0.286179 -0.267432 -3.849568
endloop
endfacet
facet normal 0.000000 -1.000000 0.000000
outer loop
vertex -0.286179 -0.267432 -3.102155
vertex 0.286179 -0.267432 -3.849568
vertex 0.286179 -0.267432 -3.102155
endloop
endfacet
facet normal 0.000000 -1.000000 0.000000
outer loop
vertex -0.286179 -0.267432 3.849568
vertex -0.286179 -0.267432 3.094751
vertex 0.286179 -0.267432 3.094751
endloop
endfacet
facet normal 0.000000 -1.000000 0.000000
outer loop
vertex -0.286179 -0.267432 3.849568
vertex 0.286179 -0.267432 3.094751
vertex 0.286179 -0.267432 3.849568
endloop
endfacet
facet normal 1.000000 0.000000 0.000000
outer loop
vertex 0.286179 -0.267432 3.849568
vertex 0.286179 -0.267432 3.094751
vertex 0.286179 0.267432 3.094751
endloop
endfacet
facet normal 1.000000 0.000000 0.000000
outer loop
vertex 0.286179 -0.267432 3.849568
vertex 0.286179 0.267432 3.094751
vertex 0.286179 0.267432 3.849568
endloop
endfacet
facet normal -1.000000 0.000000 0.000000
outer loop
vertex -0.286179 0.267432 3.849568
vertex -0.286179 0.267432 3.094751
vertex -0.286179 -0.267432 3.094751
endloop
endfacet
facet normal -1.000000 0.000000 0.000000
outer loop
vertex -0.286179 0.267432 3.849568
vertex -0.286179 -0.267432 3.094751
vertex -0.286179 -0.267432 3.849568
endloop
endfacet
facet normal 0.000000 1.000000 0.000000
outer loop
vertex 0.286179 0.267432 3.849568
vertex 0.286179 0.267432 3.094751
vertex -0.286179 0.267432 3.094751
endloop
endfacet
facet normal 0.000000 1.000000 0.000000
outer loop
vertex 0.286179 0.267432 3.849568
vertex -0.286179 0.267432 3.094751
vertex -0.286179 0.267432 3.849568
endloop
endfacet
facet normal 0.000000 -0.767724 0.640781
outer loop
vertex -0.142308 -0.132985 -2.941074
vertex -0.286179 -0.267432 -3.102155
vertex 0.286179 -0.267432 -3.102155
endloop
endfacet
facet normal 0.000000 -0.767724 0.640781
outer loop
vertex -0.142308 -0.132985 -2.941074
vertex 0.286179 -0.267432 -3.102155
vertex 0.142308 -0.132985 -2.941074
endloop
endfacet
facet normal 0.745825 0.000000 0.666142
outer loop
vertex 0.142308 -0.132985 -2.941074
vertex 0.286179 -0.267432 -3.102155
vertex 0.286179 0.267432 -3.102155
endloop
endfacet
facet normal 0.745826 0.000000 0.666140
outer loop
vertex 0.142308 -0.132985 -2.941074
vertex 0.286179 0.267432 -3.102155
vertex 0.142308 0.132985 -2.941074
endloop
endfacet
facet normal -0.745825 0.000000 0.666142
outer loop
vertex -0.142308 0.132985 -2.941074
vertex -0.286179 0.267432 -3.102155
vertex -0.286179 -0.267432 -3.102155
endloop
endfacet
facet normal -0.745826 0.000000 0.666140
outer loop
vertex -0.142308 0.132985 -2.941074
vertex -0.286179 -0.267432 -3.102155
vertex -0.142308 -0.132985 -2.941074
endloop
endfacet
facet normal 0.000000 0.767724 0.640781
outer loop
vertex 0.142308 0.132985 -2.941074
vertex 0.286179 0.267432 -3.102155
vertex -0.286179 0.267432 -3.102155
endloop
endfacet
facet normal 0.000000 0.767724 0.640781
outer loop
vertex 0.142308 0.132985 -2.941074
vertex -0.286179 0.267432 -3.102155
vertex -0.142308 0.132985 -2.941074
endloop
endfacet
facet normal 0.000000 0.999998 -0.002038
outer loop
vertex 0.154916 0.144768 2.839146
vertex 0.142308 0.132985 -2.941074
vertex -0.142308 0.132985 -2.941074
endloop
endfacet
facet normal 0.000000 0.999998 -0.002038
outer loop
vertex 0.154916 0.144768 2.839146
vertex -0.142308 0.132985 -2.941074
vertex -0.154916 0.144768 2.839146
endloop
endfacet
facet normal -0.999998 0.000000 -0.002181
outer loop
vertex -0.154916 0.144768 2.839146
vertex -0.142308 0.132985 -2.941074
vertex -0.142308 -0.132985 -2.941074
endloop
endfacet
facet normal -0.999998 0.000000 -0.002181
outer loop
vertex -0.154916 0.144768 2.839146
vertex -0.142308 -0.132985 -2.941074
vertex -0.154916 -0.144768 2.839146
endloop
endfacet
facet normal 0.999998 0.000000 -0.002181
outer loop
vertex 0.154916 -0.144768 2.839146
vertex 0.142308 -0.132985 -2.941074
vertex 0.142308 0.132985 -2.941074
endloop
endfacet
facet normal 0.999998 0.000000 -0.002181
outer loop
vertex 0.154916 -0.144768 2.839146
vertex 0.142308 0.132985 -2.941074
vertex 0.154916 0.144768 2.839146
endloop
endfacet
facet normal 0.000000 -0.999998 -0.002038
outer loop
vertex -0.154916 -0.144768 2.839146
vertex -0.142308 -0.132985 -2.941074
vertex 0.142308 -0.132985 -2.941074
endloop
endfacet
facet normal 0.000000 -0.999998 -0.002038
outer loop
vertex -0.154916 -0.144768 2.839146
vertex 0.142308 -0.132985 -2.941074
vertex 0.154916 -0.144768 2.839146
endloop
endfacet
facet normal 0.000000 -0.901558 -0.432658
outer loop
vertex -0.286179 -0.267432 3.094751
vertex -0.154916 -0.144768 2.839146
vertex 0.154916 -0.144768 2.839146
endloop
endfacet
facet normal 0.000000 -0.901558 -0.432658
outer loop
vertex -0.286179 -0.267432 3.094751
vertex 0.154916 -0.144768 2.839146
vertex 0.286179 -0.267432 3.094751
endloop
endfacet
facet normal 0.889557 0.000000 -0.456825
outer loop
vertex 0.286179 -0.267432 3.094751
vertex 0.154916 -0.144768 2.839146
vertex 0.154916 0.144768 2.839146
endloop
endfacet
facet normal 0.889557 0.000000 -0.456823
outer loop
vertex 0.286179 -0.267432 3.094751
vertex 0.154916 0.144768 2.839146
vertex 0.286179 0.267432 3.094751
endloop
endfacet
facet normal -0.889557 0.000000 -0.456825
outer loop
vertex -0.286179 0.267432 3.094751
vertex -0.154916 0.144768 2.839146
vertex -0.154916 -0.144768 2.839146
endloop
endfacet
facet normal -0.889557 0.000000 -0.456823
outer loop
vertex -0.286179 0.267432 3.094751
vertex -0.154916 -0.144768 2.839146
vertex -0.286179 -0.267432 3.094751
endloop
endfacet
facet normal 0.000000 0.901558 -0.432658
outer loop
vertex 0.286179 0.267432 3.094751
vertex 0.154916 0.144768 2.839146
vertex -0.154916 0.144768 2.839146
endloop
endfacet
facet normal 0.000000 0.901558 -0.432658
outer loop
vertex 0.286179 0.267432 3.094751
vertex -0.154916 0.144768 2.839146
vertex -0.286179 0.267432 3.094751
endloop
endfacet
endsolid Exported from Blender-2.80 (sub 75)
