solid Exported from Blender-2.80 (sub 75)
facet normal -0.991967 0.000000 -0.126495
outer loop
vertex -1.289595 -1.289595 -14.006032
vertex -1.289595 1.289595 -14.006032
vertex -1.000000 1.000000 -16.277016
endloop
endfacet
facet normal -0.991967 0.000000 -0.126495
outer loop
vertex -1.289595 -1.289595 -14.006032
vertex -1.000000 1.000000 -16.277016
vertex -1.000000 -1.000000 -16.277016
endloop
endfacet
facet normal 0.000000 0.991967 -0.126495
outer loop
vertex -1.289595 1.289595 -14.006032
vertex 1.289595 1.289595 -14.006032
vertex 1.000000 1.000000 -16.277016
endloop
endfacet
facet normal 0.000000 0.991967 -0.126495
outer loop
vertex -1.289595 1.289595 -14.006032
vertex 1.000000 1.000000 -16.277016
vertex -1.000000 1.000000 -16.277016
endloop
endfacet
facet normal 0.991967 0.000000 -0.126495
outer loop
vertex 1.289595 1.289595 -14.006032
vertex 1.289595 -1.289595 -14.006032
vertex 1.000000 -1.000000 -16.277016
endloop
endfacet
facet normal 0.991967 0.000000 -0.126495
outer loop
vertex 1.289595 1.289595 -14.006032
vertex 1.000000 -1.000000 -16.277016
vertex 1.000000 1.000000 -16.277016
endloop
endfacet
facet normal 0.000000 -0.991967 -0.126495
outer loop
vertex 1.289595 -1.289595 -14.006032
vertex -1.289595 -1.289595 -14.006032
vertex -1.000000 -1.000000 -16.277016
endloop
endfacet
facet normal 0.000000 -0.991967 -0.126495
outer loop
vertex 1.289595 -1.289595 -14.006032
vertex -1.000000 -1.000000 -16.277016
vertex 1.000000 -1.000000 -16.277016
endloop
endfacet
facet normal 0.000000 0.000000 1.000000
outer loop
vertex -1.000000 1.000000 16.277016
vertex -1.000000 -1.000000 16.277016
vertex 1.000000 -1.000000 16.277016
endloop
endfacet
facet normal 0.000000 0.000000 1.000000
outer loop
vertex -1.000000 1.000000 16.277016
vertex 1.000000 -1.000000 16.277016
vertex 1.000000 1.000000 16.277016
endloop
endfacet
facet normal 0.000000 0.000000 -1.000000
outer loop
vertex 1.000000 1.000000 -16.277016
vertex 1.000000 -1.000000 -16.277016
vertex -1.000000 -1.000000 -16.277016
endloop
endfacet
facet normal 0.000000 0.000000 -1.000000
outer loop
vertex 1.000000 1.000000 -16.277016
vertex -1.000000 -1.000000 -16.277016
vertex -1.000000 1.000000 -16.277016
endloop
endfacet
facet normal 0.000000 -0.913582 0.406654
outer loop
vertex 0.252393 -0.252393 0.489681
vertex -0.252393 -0.252393 0.489681
vertex -0.470360 -0.470360 0.000000
endloop
endfacet
facet normal 0.000000 -0.913582 0.406654
outer loop
vertex 0.252393 -0.252393 0.489681
vertex -0.470360 -0.470360 0.000000
vertex 0.470360 -0.470360 0.000000
endloop
endfacet
facet normal 0.913582 0.000000 0.406654
outer loop
vertex 0.252393 0.252393 0.489681
vertex 0.252393 -0.252393 0.489681
vertex 0.470360 -0.470360 0.000000
endloop
endfacet
facet normal 0.913582 0.000000 0.406654
outer loop
vertex 0.252393 0.252393 0.489681
vertex 0.470360 -0.470360 0.000000
vertex 0.470360 0.470360 0.000000
endloop
endfacet
facet normal 0.000000 0.913582 0.406654
outer loop
vertex -0.252393 0.252393 0.489681
vertex 0.252393 0.252393 0.489681
vertex 0.470360 0.470360 0.000000
endloop
endfacet
facet normal 0.000000 0.913582 0.406654
outer loop
vertex -0.252393 0.252393 0.489681
vertex 0.470360 0.470360 0.000000
vertex -0.470360 0.470360 0.000000
endloop
endfacet
facet normal -0.913582 0.000000 0.406654
outer loop
vertex -0.252393 -0.252393 0.489681
vertex -0.252393 0.252393 0.489681
vertex -0.470360 0.470360 0.000000
endloop
endfacet
facet normal -0.913582 0.000000 0.406654
outer loop
vertex -0.252393 -0.252393 0.489681
vertex -0.470360 0.470360 0.000000
vertex -0.470360 -0.470360 0.000000
endloop
endfacet
facet normal -0.991574 0.000000 0.129543
outer loop
vertex -1.000000 -1.000000 16.277016
vertex -1.000000 1.000000 16.277016
vertex -1.324508 1.324508 13.793098
endloop
endfacet
facet normal -0.991574 0.000000 0.129543
outer loop
vertex -1.000000 -1.000000 16.277016
vertex -1.324508 1.324508 13.793098
vertex -1.324508 -1.324508 13.793098
endloop
endfacet
facet normal 0.000000 0.991574 0.129543
outer loop
vertex -1.000000 1.000000 16.277016
vertex 1.000000 1.000000 16.277016
vertex 1.324508 1.324508 13.793098
endloop
endfacet
facet normal 0.000000 0.991574 0.129543
outer loop
vertex -1.000000 1.000000 16.277016
vertex 1.324508 1.324508 13.793098
vertex -1.324508 1.324508 13.793098
endloop
endfacet
facet normal 0.991574 0.000000 0.129543
outer loop
vertex 1.000000 1.000000 16.277016
vertex 1.000000 -1.000000 16.277016
vertex 1.324508 -1.324508 13.793098
endloop
endfacet
facet normal 0.991574 0.000000 0.129543
outer loop
vertex 1.000000 1.000000 16.277016
vertex 1.324508 -1.324508 13.793098
vertex 1.324508 1.324508 13.793098
endloop
endfacet
facet normal 0.000000 -0.991574 0.129543
outer loop
vertex 1.000000 -1.000000 16.277016
vertex -1.000000 -1.000000 16.277016
vertex -1.324508 -1.324508 13.793098
endloop
endfacet
facet normal 0.000000 -0.991574 0.129543
outer loop
vertex 1.000000 -1.000000 16.277016
vertex -1.324508 -1.324508 13.793098
vertex 1.324508 -1.324508 13.793098
endloop
endfacet
facet normal 0.000000 -0.996010 0.089239
outer loop
vertex 0.226498 -0.226498 -2.140570
vertex -0.226498 -0.226498 -2.140570
vertex -1.289595 -1.289595 -14.006032
endloop
endfacet
facet normal 0.000000 -0.996010 0.089238
outer loop
vertex 0.226498 -0.226498 -2.140570
vertex -1.289595 -1.289595 -14.006032
vertex 1.289595 -1.289595 -14.006032
endloop
endfacet
facet normal 0.996010 0.000000 0.089238
outer loop
vertex 0.226498 0.226498 -2.140570
vertex 0.226498 -0.226498 -2.140570
vertex 1.289595 -1.289595 -14.006032
endloop
endfacet
facet normal 0.996010 0.000000 0.089238
outer loop
vertex 0.226498 0.226498 -2.140570
vertex 1.289595 -1.289595 -14.006032
vertex 1.289595 1.289595 -14.006032
endloop
endfacet
facet normal 0.000000 0.996010 0.089239
outer loop
vertex -0.226498 0.226498 -2.140570
vertex 0.226498 0.226498 -2.140570
vertex 1.289595 1.289595 -14.006032
endloop
endfacet
facet normal 0.000000 0.996010 0.089238
outer loop
vertex -0.226498 0.226498 -2.140570
vertex 1.289595 1.289595 -14.006032
vertex -1.289595 1.289595 -14.006032
endloop
endfacet
facet normal -0.996010 0.000000 0.089238
outer loop
vertex -0.226498 -0.226498 -2.140570
vertex -0.226498 0.226498 -2.140570
vertex -1.289595 1.289595 -14.006032
endloop
endfacet
facet normal -0.996010 0.000000 0.089238
outer loop
vertex -0.226498 -0.226498 -2.140570
vertex -1.289595 1.289595 -14.006032
vertex -1.289595 -1.289595 -14.006032
endloop
endfacet
facet normal -0.913536 0.000000 -0.406758
outer loop
vertex -0.470360 -0.470360 0.000000
vertex -0.470360 0.470360 0.000000
vertex -0.211335 0.211335 -0.581745
endloop
endfacet
facet normal -0.913536 0.000000 -0.406758
outer loop
vertex -0.470360 -0.470360 0.000000
vertex -0.211335 0.211335 -0.581745
vertex -0.211335 -0.211335 -0.581745
endloop
endfacet
facet normal 0.000000 0.913536 -0.406758
outer loop
vertex -0.470360 0.470360 0.000000
vertex 0.470360 0.470360 0.000000
vertex 0.211335 0.211335 -0.581745
endloop
endfacet
facet normal 0.000000 0.913536 -0.406758
outer loop
vertex -0.470360 0.470360 0.000000
vertex 0.211335 0.211335 -0.581745
vertex -0.211335 0.211335 -0.581745
endloop
endfacet
facet normal 0.913536 0.000000 -0.406758
outer loop
vertex 0.470360 0.470360 0.000000
vertex 0.470360 -0.470360 0.000000
vertex 0.211335 -0.211335 -0.581745
endloop
endfacet
facet normal 0.913536 0.000000 -0.406758
outer loop
vertex 0.470360 0.470360 0.000000
vertex 0.211335 -0.211335 -0.581745
vertex 0.211335 0.211335 -0.581745
endloop
endfacet
facet normal 0.000000 -0.913536 -0.406758
outer loop
vertex 0.470360 -0.470360 0.000000
vertex -0.470360 -0.470360 0.000000
vertex -0.211335 -0.211335 -0.581745
endloop
endfacet
facet normal 0.000000 -0.913536 -0.406758
outer loop
vertex 0.470360 -0.470360 0.000000
vertex -0.211335 -0.211335 -0.581745
vertex 0.211335 -0.211335 -0.581745
endloop
endfacet
facet normal -0.958439 0.000000 -0.285297
outer loop
vertex -0.485509 -0.485509 1.272820
vertex -0.485509 0.485509 1.272820
vertex -0.252393 0.252393 0.489681
endloop
endfacet
facet normal -0.958439 0.000000 -0.285296
outer loop
vertex -0.485509 -0.485509 1.272820
vertex -0.252393 0.252393 0.489681
vertex -0.252393 -0.252393 0.489681
endloop
endfacet
facet normal 0.000000 0.958439 -0.285297
outer loop
vertex -0.485509 0.485509 1.272820
vertex 0.485509 0.485509 1.272820
vertex 0.252393 0.252393 0.489681
endloop
endfacet
facet normal 0.000000 0.958439 -0.285297
outer loop
vertex -0.485509 0.485509 1.272820
vertex 0.252393 0.252393 0.489681
vertex -0.252393 0.252393 0.489681
endloop
endfacet
facet normal 0.958439 0.000000 -0.285297
outer loop
vertex 0.485509 0.485509 1.272820
vertex 0.485509 -0.485509 1.272820
vertex 0.252393 -0.252393 0.489681
endloop
endfacet
facet normal 0.958439 0.000000 -0.285296
outer loop
vertex 0.485509 0.485509 1.272820
vertex 0.252393 -0.252393 0.489681
vertex 0.252393 0.252393 0.489681
endloop
endfacet
facet normal 0.000000 -0.958439 -0.285297
outer loop
vertex 0.485509 -0.485509 1.272820
vertex -0.485509 -0.485509 1.272820
vertex -0.252393 -0.252393 0.489681
endloop
endfacet
facet normal 0.000000 -0.958439 -0.285297
outer loop
vertex 0.485509 -0.485509 1.272820
vertex -0.252393 -0.252393 0.489681
vertex 0.252393 -0.252393 0.489681
endloop
endfacet
facet normal 0.000000 -0.938734 0.344642
outer loop
vertex 0.203158 -0.203158 2.041885
vertex -0.203158 -0.203158 2.041885
vertex -0.485509 -0.485509 1.272820
endloop
endfacet
facet normal 0.000000 -0.938734 0.344642
outer loop
vertex 0.203158 -0.203158 2.041885
vertex -0.485509 -0.485509 1.272820
vertex 0.485509 -0.485509 1.272820
endloop
endfacet
facet normal 0.938734 0.000000 0.344642
outer loop
vertex 0.203158 0.203158 2.041885
vertex 0.203158 -0.203158 2.041885
vertex 0.485509 -0.485509 1.272820
endloop
endfacet
facet normal 0.938734 0.000000 0.344642
outer loop
vertex 0.203158 0.203158 2.041885
vertex 0.485509 -0.485509 1.272820
vertex 0.485509 0.485509 1.272820
endloop
endfacet
facet normal 0.000000 0.938734 0.344642
outer loop
vertex -0.203158 0.203158 2.041885
vertex 0.203158 0.203158 2.041885
vertex 0.485509 0.485509 1.272820
endloop
endfacet
facet normal 0.000000 0.938734 0.344642
outer loop
vertex -0.203158 0.203158 2.041885
vertex 0.485509 0.485509 1.272820
vertex -0.485509 0.485509 1.272820
endloop
endfacet
facet normal -0.938734 0.000000 0.344642
outer loop
vertex -0.203158 -0.203158 2.041885
vertex -0.203158 0.203158 2.041885
vertex -0.485509 0.485509 1.272820
endloop
endfacet
facet normal -0.938734 0.000000 0.344642
outer loop
vertex -0.203158 -0.203158 2.041885
vertex -0.485509 0.485509 1.272820
vertex -0.485509 -0.485509 1.272820
endloop
endfacet
facet normal -0.995478 0.000000 -0.094993
outer loop
vertex -1.324508 -1.324508 13.793098
vertex -1.324508 1.324508 13.793098
vertex -0.203158 0.203158 2.041885
endloop
endfacet
facet normal -0.995478 0.000000 -0.094993
outer loop
vertex -1.324508 -1.324508 13.793098
vertex -0.203158 0.203158 2.041885
vertex -0.203158 -0.203158 2.041885
endloop
endfacet
facet normal 0.000000 0.995478 -0.094993
outer loop
vertex -1.324508 1.324508 13.793098
vertex 1.324508 1.324508 13.793098
vertex 0.203158 0.203158 2.041885
endloop
endfacet
facet normal 0.000000 0.995478 -0.094993
outer loop
vertex -1.324508 1.324508 13.793098
vertex 0.203158 0.203158 2.041885
vertex -0.203158 0.203158 2.041885
endloop
endfacet
facet normal 0.995478 0.000000 -0.094993
outer loop
vertex 1.324508 1.324508 13.793098
vertex 1.324508 -1.324508 13.793098
vertex 0.203158 -0.203158 2.041885
endloop
endfacet
facet normal 0.995478 0.000000 -0.094993
outer loop
vertex 1.324508 1.324508 13.793098
vertex 0.203158 -0.203158 2.041885
vertex 0.203158 0.203158 2.041885
endloop
endfacet
facet normal 0.000000 -0.995478 -0.094993
outer loop
vertex 1.324508 -1.324508 13.793098
vertex -1.324508 -1.324508 13.793098
vertex -0.203158 -0.203158 2.041885
endloop
endfacet
facet normal 0.000000 -0.995478 -0.094993
outer loop
vertex 1.324508 -1.324508 13.793098
vertex -0.203158 -0.203158 2.041885
vertex 0.203158 -0.203158 2.041885
endloop
endfacet
facet normal -0.959265 0.000000 0.282508
outer loop
vertex -0.211335 -0.211335 -0.581745
vertex -0.211335 0.211335 -0.581745
vertex -0.430711 0.430711 -1.326644
endloop
endfacet
facet normal -0.959265 0.000000 0.282508
outer loop
vertex -0.211335 -0.211335 -0.581745
vertex -0.430711 0.430711 -1.326644
vertex -0.430711 -0.430711 -1.326644
endloop
endfacet
facet normal 0.000000 0.959265 0.282508
outer loop
vertex -0.211335 0.211335 -0.581745
vertex 0.211335 0.211335 -0.581745
vertex 0.430711 0.430711 -1.326644
endloop
endfacet
facet normal 0.000000 0.959265 0.282508
outer loop
vertex -0.211335 0.211335 -0.581745
vertex 0.430711 0.430711 -1.326644
vertex -0.430711 0.430711 -1.326644
endloop
endfacet
facet normal 0.959265 0.000000 0.282508
outer loop
vertex 0.211335 0.211335 -0.581745
vertex 0.211335 -0.211335 -0.581745
vertex 0.430711 -0.430711 -1.326644
endloop
endfacet
facet normal 0.959265 0.000000 0.282508
outer loop
vertex 0.211335 0.211335 -0.581745
vertex 0.430711 -0.430711 -1.326644
vertex 0.430711 0.430711 -1.326644
endloop
endfacet
facet normal 0.000000 -0.959265 0.282508
outer loop
vertex 0.211335 -0.211335 -0.581745
vertex -0.211335 -0.211335 -0.581745
vertex -0.430711 -0.430711 -1.326644
endloop
endfacet
facet normal 0.000000 -0.959265 0.282508
outer loop
vertex 0.211335 -0.211335 -0.581745
vertex -0.430711 -0.430711 -1.326644
vertex 0.430711 -0.430711 -1.326644
endloop
endfacet
facet normal -0.969937 0.000000 -0.243357
outer loop
vertex -0.430711 -0.430711 -1.326644
vertex -0.430711 0.430711 -1.326644
vertex -0.226498 0.226498 -2.140570
endloop
endfacet
facet normal -0.969937 0.000000 -0.243357
outer loop
vertex -0.430711 -0.430711 -1.326644
vertex -0.226498 0.226498 -2.140570
vertex -0.226498 -0.226498 -2.140570
endloop
endfacet
facet normal 0.000000 0.969937 -0.243357
outer loop
vertex -0.430711 0.430711 -1.326644
vertex 0.430711 0.430711 -1.326644
vertex 0.226498 0.226498 -2.140570
endloop
endfacet
facet normal 0.000000 0.969937 -0.243357
outer loop
vertex -0.430711 0.430711 -1.326644
vertex 0.226498 0.226498 -2.140570
vertex -0.226498 0.226498 -2.140570
endloop
endfacet
facet normal 0.969937 0.000000 -0.243357
outer loop
vertex 0.430711 0.430711 -1.326644
vertex 0.430711 -0.430711 -1.326644
vertex 0.226498 -0.226498 -2.140570
endloop
endfacet
facet normal 0.969937 0.000000 -0.243357
outer loop
vertex 0.430711 0.430711 -1.326644
vertex 0.226498 -0.226498 -2.140570
vertex 0.226498 0.226498 -2.140570
endloop
endfacet
facet normal 0.000000 -0.969937 -0.243357
outer loop
vertex 0.430711 -0.430711 -1.326644
vertex -0.430711 -0.430711 -1.326644
vertex -0.226498 -0.226498 -2.140570
endloop
endfacet
facet normal 0.000000 -0.969937 -0.243357
outer loop
vertex 0.430711 -0.430711 -1.326644
vertex -0.226498 -0.226498 -2.140570
vertex 0.226498 -0.226498 -2.140570
endloop
endfacet
endsolid Exported from Blender-2.80 (sub 75)
