solid Exported from Blender-2.80 (sub 75)
facet normal -0.913564 0.406695 0.000000
outer loop
vertex -1.445175 0.000000 -18.772245
vertex -1.445175 0.000000 18.772245
vertex -1.000000 1.000000 18.772245
endloop
endfacet
facet normal -0.913564 0.406696 0.000000
outer loop
vertex -1.445175 0.000000 -18.772245
vertex -1.000000 1.000000 18.772245
vertex -1.000000 1.000000 -18.772245
endloop
endfacet
facet normal 0.504178 0.863600 0.000000
outer loop
vertex 0.000000 1.583810 -18.772245
vertex 0.000000 1.583810 18.772245
vertex 1.000000 1.000000 18.772245
endloop
endfacet
facet normal 0.504178 0.863600 0.000000
outer loop
vertex 0.000000 1.583810 -18.772245
vertex 1.000000 1.000000 18.772245
vertex 1.000000 1.000000 -18.772245
endloop
endfacet
facet normal 0.913564 -0.406695 0.000000
outer loop
vertex 1.445175 0.000000 -18.772245
vertex 1.445175 0.000000 18.772245
vertex 1.000000 -1.000000 18.772245
endloop
endfacet
facet normal 0.913564 -0.406696 0.000000
outer loop
vertex 1.445175 0.000000 -18.772245
vertex 1.000000 -1.000000 18.772245
vertex 1.000000 -1.000000 -18.772245
endloop
endfacet
facet normal -0.504178 -0.863600 0.000000
outer loop
vertex 0.000000 -1.583810 -18.772245
vertex 0.000000 -1.583810 18.772245
vertex -1.000000 -1.000000 18.772245
endloop
endfacet
facet normal -0.504178 -0.863600 0.000000
outer loop
vertex 0.000000 -1.583810 -18.772245
vertex -1.000000 -1.000000 18.772245
vertex -1.000000 -1.000000 -18.772245
endloop
endfacet
facet normal 0.000000 0.000000 -1.000000
outer loop
vertex 0.000000 0.000000 -18.772245
vertex 1.445175 0.000000 -18.772245
vertex 1.000000 -1.000000 -18.772245
endloop
endfacet
facet normal 0.000000 0.000000 -1.000000
outer loop
vertex 0.000000 0.000000 -18.772245
vertex 1.000000 -1.000000 -18.772245
vertex 0.000000 -1.583810 -18.772245
endloop
endfacet
facet normal 0.000000 0.000000 1.000000
outer loop
vertex 0.000000 0.000000 18.772245
vertex -1.445175 0.000000 18.772245
vertex -1.000000 -1.000000 18.772245
endloop
endfacet
facet normal 0.000000 0.000000 1.000000
outer loop
vertex 0.000000 0.000000 18.772245
vertex -1.000000 -1.000000 18.772245
vertex 0.000000 -1.583810 18.772245
endloop
endfacet
facet normal 0.000000 0.000000 1.000000
outer loop
vertex 1.445175 0.000000 18.772245
vertex 0.000000 0.000000 18.772245
vertex 0.000000 -1.583810 18.772245
endloop
endfacet
facet normal 0.000000 0.000000 1.000000
outer loop
vertex 1.445175 0.000000 18.772245
vertex 0.000000 -1.583810 18.772245
vertex 1.000000 -1.000000 18.772245
endloop
endfacet
facet normal 0.000000 0.000000 -1.000000
outer loop
vertex -1.445175 0.000000 -18.772245
vertex 0.000000 0.000000 -18.772245
vertex 0.000000 -1.583810 -18.772245
endloop
endfacet
facet normal 0.000000 0.000000 -1.000000
outer loop
vertex -1.445175 0.000000 -18.772245
vertex 0.000000 -1.583810 -18.772245
vertex -1.000000 -1.000000 -18.772245
endloop
endfacet
facet normal 0.504178 -0.863600 0.000000
outer loop
vertex 1.000000 -1.000000 -18.772245
vertex 1.000000 -1.000000 18.772245
vertex 0.000000 -1.583810 18.772245
endloop
endfacet
facet normal 0.504178 -0.863600 0.000000
outer loop
vertex 1.000000 -1.000000 -18.772245
vertex 0.000000 -1.583810 18.772245
vertex 0.000000 -1.583810 -18.772245
endloop
endfacet
facet normal -0.504178 0.863600 0.000000
outer loop
vertex -1.000000 1.000000 -18.772245
vertex -1.000000 1.000000 18.772245
vertex 0.000000 1.583810 18.772245
endloop
endfacet
facet normal -0.504178 0.863600 0.000000
outer loop
vertex -1.000000 1.000000 -18.772245
vertex 0.000000 1.583810 18.772245
vertex 0.000000 1.583810 -18.772245
endloop
endfacet
facet normal 0.000000 0.000000 -1.000000
outer loop
vertex -1.000000 1.000000 -18.772245
vertex 0.000000 1.583810 -18.772245
vertex 0.000000 0.000000 -18.772245
endloop
endfacet
facet normal 0.000000 0.000000 -1.000000
outer loop
vertex -1.000000 1.000000 -18.772245
vertex 0.000000 0.000000 -18.772245
vertex -1.445175 0.000000 -18.772245
endloop
endfacet
facet normal 0.000000 0.000000 1.000000
outer loop
vertex 1.000000 1.000000 18.772245
vertex 0.000000 1.583810 18.772245
vertex 0.000000 0.000000 18.772245
endloop
endfacet
facet normal 0.000000 0.000000 1.000000
outer loop
vertex 1.000000 1.000000 18.772245
vertex 0.000000 0.000000 18.772245
vertex 1.445175 0.000000 18.772245
endloop
endfacet
facet normal 0.000000 0.000000 1.000000
outer loop
vertex 0.000000 1.583810 18.772245
vertex -1.000000 1.000000 18.772245
vertex -1.445175 0.000000 18.772245
endloop
endfacet
facet normal 0.000000 0.000000 1.000000
outer loop
vertex 0.000000 1.583810 18.772245
vertex -1.445175 0.000000 18.772245
vertex 0.000000 0.000000 18.772245
endloop
endfacet
facet normal 0.000000 0.000000 -1.000000
outer loop
vertex 0.000000 1.583810 -18.772245
vertex 1.000000 1.000000 -18.772245
vertex 1.445175 0.000000 -18.772245
endloop
endfacet
facet normal 0.000000 0.000000 -1.000000
outer loop
vertex 0.000000 1.583810 -18.772245
vertex 1.445175 0.000000 -18.772245
vertex 0.000000 0.000000 -18.772245
endloop
endfacet
facet normal 0.913564 0.406696 0.000000
outer loop
vertex 1.000000 1.000000 -18.772245
vertex 1.000000 1.000000 18.772245
vertex 1.445175 0.000000 18.772245
endloop
endfacet
facet normal 0.913564 0.406695 0.000000
outer loop
vertex 1.000000 1.000000 -18.772245
vertex 1.445175 0.000000 18.772245
vertex 1.445175 0.000000 -18.772245
endloop
endfacet
facet normal -0.913564 -0.406696 0.000000
outer loop
vertex -1.000000 -1.000000 -18.772245
vertex -1.000000 -1.000000 18.772245
vertex -1.445175 0.000000 18.772245
endloop
endfacet
facet normal -0.913564 -0.406695 0.000000
outer loop
vertex -1.000000 -1.000000 -18.772245
vertex -1.445175 0.000000 18.772245
vertex -1.445175 0.000000 -18.772245
endloop
endfacet
endsolid Exported from Blender-2.80 (sub 75)
