solid Exported from Blender-2.80 (sub 75)
facet normal -0.135848 0.990547 0.019003
outer loop
vertex -1.126599 0.854854 -6.660773
vertex 0.854854 1.126599 -6.660773
vertex -1.000000 1.000000 -13.321546
endloop
endfacet
facet normal -0.999820 0.000000 -0.019003
outer loop
vertex -1.126599 0.854854 -6.660773
vertex -1.000000 1.000000 -13.321546
vertex -1.000000 -1.000000 -13.321546
endloop
endfacet
facet normal 0.990547 0.135848 0.019003
outer loop
vertex 0.854854 1.126599 -6.660773
vertex 1.126599 -0.854854 -6.660773
vertex 1.000000 1.000000 -13.321546
endloop
endfacet
facet normal 0.000000 0.999819 -0.019003
outer loop
vertex 0.854854 1.126599 -6.660773
vertex 1.000000 1.000000 -13.321546
vertex -1.000000 1.000000 -13.321546
endloop
endfacet
facet normal 0.135848 -0.990547 0.019003
outer loop
vertex 1.126599 -0.854854 -6.660773
vertex -0.854854 -1.126599 -6.660773
vertex 1.000000 -1.000000 -13.321546
endloop
endfacet
facet normal 0.999820 0.000000 -0.019003
outer loop
vertex 1.126599 -0.854854 -6.660773
vertex 1.000000 -1.000000 -13.321546
vertex 1.000000 1.000000 -13.321546
endloop
endfacet
facet normal -0.990547 -0.135848 0.019003
outer loop
vertex -0.854854 -1.126599 -6.660773
vertex -1.126599 0.854854 -6.660773
vertex -1.000000 -1.000000 -13.321546
endloop
endfacet
facet normal 0.000000 -0.999819 -0.019003
outer loop
vertex -0.854854 -1.126599 -6.660773
vertex -1.000000 -1.000000 -13.321546
vertex 1.000000 -1.000000 -13.321546
endloop
endfacet
facet normal 0.000000 0.000000 1.000000
outer loop
vertex -1.000000 1.000000 13.321546
vertex -1.000000 -1.000000 13.321546
vertex 1.000000 -1.000000 13.321546
endloop
endfacet
facet normal 0.000000 0.000000 1.000000
outer loop
vertex -1.000000 1.000000 13.321546
vertex 1.000000 -1.000000 13.321546
vertex 1.000000 1.000000 13.321546
endloop
endfacet
facet normal 0.000000 0.000000 -1.000000
outer loop
vertex 1.000000 1.000000 -13.321546
vertex 1.000000 -1.000000 -13.321546
vertex -1.000000 -1.000000 -13.321546
endloop
endfacet
facet normal 0.000000 0.000000 -1.000000
outer loop
vertex 1.000000 1.000000 -13.321546
vertex -1.000000 -1.000000 -13.321546
vertex -1.000000 1.000000 -13.321546
endloop
endfacet
facet normal 0.957661 -0.083263 -0.275595
outer loop
vertex 1.082859 0.909624 6.660773
vertex 0.909624 -1.082859 6.660773
vertex -1.000000 -1.000000 0.000000
endloop
endfacet
facet normal 0.000000 -0.961274 0.275595
outer loop
vertex 1.082859 0.909624 6.660773
vertex -1.000000 -1.000000 0.000000
vertex 1.000000 -1.000000 0.000000
endloop
endfacet
facet normal 0.083263 0.957661 -0.275594
outer loop
vertex -0.909624 1.082859 6.660773
vertex 1.082859 0.909624 6.660773
vertex 1.000000 -1.000000 0.000000
endloop
endfacet
facet normal 0.961274 0.000000 0.275594
outer loop
vertex -0.909624 1.082859 6.660773
vertex 1.000000 -1.000000 0.000000
vertex 1.000000 1.000000 0.000000
endloop
endfacet
facet normal -0.957661 0.083263 -0.275595
outer loop
vertex -1.082859 -0.909624 6.660773
vertex -0.909624 1.082859 6.660773
vertex 1.000000 1.000000 0.000000
endloop
endfacet
facet normal 0.000000 0.961274 0.275595
outer loop
vertex -1.082859 -0.909624 6.660773
vertex 1.000000 1.000000 0.000000
vertex -1.000000 1.000000 0.000000
endloop
endfacet
facet normal -0.083263 -0.957661 -0.275594
outer loop
vertex 0.909624 -1.082859 6.660773
vertex -1.082859 -0.909624 6.660773
vertex -1.000000 1.000000 0.000000
endloop
endfacet
facet normal -0.961274 0.000000 0.275594
outer loop
vertex 0.909624 -1.082859 6.660773
vertex -1.000000 1.000000 0.000000
vertex -1.000000 -1.000000 0.000000
endloop
endfacet
facet normal -0.999923 0.000000 0.012439
outer loop
vertex -1.000000 -1.000000 13.321546
vertex -1.000000 1.000000 13.321546
vertex -1.082859 -0.909624 6.660773
endloop
endfacet
facet normal -0.086611 -0.996165 -0.012439
outer loop
vertex -1.000000 -1.000000 13.321546
vertex -1.082859 -0.909624 6.660773
vertex 0.909624 -1.082859 6.660773
endloop
endfacet
facet normal 0.000000 0.999923 0.012439
outer loop
vertex -1.000000 1.000000 13.321546
vertex 1.000000 1.000000 13.321546
vertex -0.909624 1.082859 6.660773
endloop
endfacet
facet normal -0.996165 0.086611 -0.012439
outer loop
vertex -1.000000 1.000000 13.321546
vertex -0.909624 1.082859 6.660773
vertex -1.082859 -0.909624 6.660773
endloop
endfacet
facet normal 0.999923 0.000000 0.012439
outer loop
vertex 1.000000 1.000000 13.321546
vertex 1.000000 -1.000000 13.321546
vertex 1.082859 0.909624 6.660773
endloop
endfacet
facet normal 0.086611 0.996165 -0.012439
outer loop
vertex 1.000000 1.000000 13.321546
vertex 1.082859 0.909624 6.660773
vertex -0.909624 1.082859 6.660773
endloop
endfacet
facet normal 0.000000 -0.999923 0.012439
outer loop
vertex 1.000000 -1.000000 13.321546
vertex -1.000000 -1.000000 13.321546
vertex 0.909624 -1.082859 6.660773
endloop
endfacet
facet normal 0.996165 -0.086611 -0.012439
outer loop
vertex 1.000000 -1.000000 13.321546
vertex 0.909624 -1.082859 6.660773
vertex 1.082859 0.909624 6.660773
endloop
endfacet
facet normal 0.000000 -0.963345 -0.268267
outer loop
vertex 1.000000 -1.000000 0.000000
vertex -1.000000 -1.000000 0.000000
vertex -1.126599 0.854854 -6.660773
endloop
endfacet
facet normal -0.954411 -0.130892 0.268267
outer loop
vertex 1.000000 -1.000000 0.000000
vertex -1.126599 0.854854 -6.660773
vertex -0.854854 -1.126599 -6.660773
endloop
endfacet
facet normal 0.963345 0.000000 -0.268267
outer loop
vertex 1.000000 1.000000 0.000000
vertex 1.000000 -1.000000 0.000000
vertex -0.854854 -1.126599 -6.660773
endloop
endfacet
facet normal 0.130892 -0.954411 0.268267
outer loop
vertex 1.000000 1.000000 0.000000
vertex -0.854854 -1.126599 -6.660773
vertex 1.126599 -0.854854 -6.660773
endloop
endfacet
facet normal 0.000000 0.963345 -0.268267
outer loop
vertex -1.000000 1.000000 0.000000
vertex 1.000000 1.000000 0.000000
vertex 1.126599 -0.854854 -6.660773
endloop
endfacet
facet normal 0.954411 0.130892 0.268267
outer loop
vertex -1.000000 1.000000 0.000000
vertex 1.126599 -0.854854 -6.660773
vertex 0.854854 1.126599 -6.660773
endloop
endfacet
facet normal -0.963345 0.000000 -0.268267
outer loop
vertex -1.000000 -1.000000 0.000000
vertex -1.000000 1.000000 0.000000
vertex 0.854854 1.126599 -6.660773
endloop
endfacet
facet normal -0.130892 0.954411 0.268267
outer loop
vertex -1.000000 -1.000000 0.000000
vertex 0.854854 1.126599 -6.660773
vertex -1.126599 0.854854 -6.660773
endloop
endfacet
endsolid Exported from Blender-2.80 (sub 75)
