solid Exported from Blender-2.80 (sub 75)
facet normal -0.924252 -0.218534 -0.313050
outer loop
vertex -0.763556 0.000000 -12.558465
vertex -1.000000 1.000000 -12.558465
vertex 0.608473 1.276621 -17.500454
endloop
endfacet
facet normal -0.540791 0.838526 0.066471
outer loop
vertex -0.763556 0.000000 -12.558465
vertex 0.608473 1.276621 -17.500454
vertex -0.255084 0.719687 -17.500454
endloop
endfacet
facet normal -0.272623 0.910288 -0.311532
outer loop
vertex 0.000000 0.700509 -12.558465
vertex 1.000000 1.000000 -12.558465
vertex 1.276621 -0.608473 -17.500454
endloop
endfacet
facet normal 0.805984 0.589647 0.052023
outer loop
vertex 0.000000 0.700509 -12.558465
vertex 1.276621 -0.608473 -17.500454
vertex 0.660263 0.234022 -17.500454
endloop
endfacet
facet normal 0.924252 0.218534 -0.313050
outer loop
vertex 0.763556 0.000000 -12.558465
vertex 1.000000 -1.000000 -12.558465
vertex -0.608473 -1.276621 -17.500454
endloop
endfacet
facet normal 0.540791 -0.838526 0.066471
outer loop
vertex 0.763556 0.000000 -12.558465
vertex -0.608473 -1.276621 -17.500454
vertex 0.255084 -0.719687 -17.500454
endloop
endfacet
facet normal 0.272623 -0.910288 -0.311532
outer loop
vertex 0.000000 -0.700509 -12.558465
vertex -1.000000 -1.000000 -12.558465
vertex -1.276621 0.608473 -17.500454
endloop
endfacet
facet normal -0.805984 -0.589647 0.052023
outer loop
vertex 0.000000 -0.700509 -12.558465
vertex -1.276621 0.608473 -17.500454
vertex -0.660263 -0.234022 -17.500454
endloop
endfacet
facet normal -0.000001 0.000000 1.000000
outer loop
vertex 0.000000 0.000000 17.500454
vertex 0.000000 -0.700509 17.500454
vertex 1.000000 -1.000000 17.500454
endloop
endfacet
facet normal 0.000000 0.000000 1.000000
outer loop
vertex 0.000000 0.000000 17.500454
vertex 1.000000 -1.000000 17.500454
vertex 0.763556 0.000000 17.500454
endloop
endfacet
facet normal 0.000000 0.000000 -1.000000
outer loop
vertex 0.000000 0.000000 -17.500454
vertex -0.660263 -0.234022 -17.500454
vertex -1.276621 0.608473 -17.500454
endloop
endfacet
facet normal 0.000000 0.000000 -1.000000
outer loop
vertex 0.000000 0.000000 -17.500454
vertex -1.276621 0.608473 -17.500454
vertex -0.255084 0.719687 -17.500454
endloop
endfacet
facet normal -0.000004 0.000000 -1.000000
outer loop
vertex 0.255084 -0.719687 -17.500454
vertex -0.608473 -1.276621 -17.500454
vertex -0.660263 -0.234022 -17.500454
endloop
endfacet
facet normal 0.000004 0.000000 -1.000000
outer loop
vertex 0.255084 -0.719687 -17.500454
vertex -0.660263 -0.234022 -17.500454
vertex 0.000000 0.000000 -17.500454
endloop
endfacet
facet normal 0.000001 0.000000 1.000000
outer loop
vertex -0.763556 0.000000 17.500454
vertex -1.000000 -1.000000 17.500454
vertex 0.000000 -0.700509 17.500454
endloop
endfacet
facet normal 0.000000 0.000000 1.000000
outer loop
vertex -0.763556 0.000000 17.500454
vertex 0.000000 -0.700509 17.500454
vertex 0.000000 0.000000 17.500454
endloop
endfacet
facet normal -0.286512 -0.956663 -0.052023
outer loop
vertex 1.000000 -1.000000 -12.558465
vertex 0.000000 -0.700509 -12.558465
vertex -0.660263 -0.234022 -17.500454
endloop
endfacet
facet normal -0.949065 -0.047144 0.311532
outer loop
vertex 1.000000 -1.000000 -12.558465
vertex -0.660263 -0.234022 -17.500454
vertex -0.608473 -1.276621 -17.500454
endloop
endfacet
facet normal 0.286512 0.956663 -0.052023
outer loop
vertex -1.000000 1.000000 -12.558465
vertex 0.000000 0.700509 -12.558465
vertex 0.660263 0.234022 -17.500454
endloop
endfacet
facet normal 0.949065 0.047144 0.311532
outer loop
vertex -1.000000 1.000000 -12.558465
vertex 0.660263 0.234022 -17.500454
vertex 0.608473 1.276621 -17.500454
endloop
endfacet
facet normal 0.000000 0.000000 1.000000
outer loop
vertex -1.000000 1.000000 17.500454
vertex -0.763556 0.000000 17.500454
vertex 0.000000 0.000000 17.500454
endloop
endfacet
facet normal 0.000000 0.000000 1.000000
outer loop
vertex -1.000000 1.000000 17.500454
vertex 0.000000 0.000000 17.500454
vertex 0.000000 0.700509 17.500454
endloop
endfacet
facet normal 0.000000 0.000000 -1.000000
outer loop
vertex 1.276621 -0.608473 -17.500454
vertex 0.255084 -0.719687 -17.500454
vertex 0.000000 0.000000 -17.500454
endloop
endfacet
facet normal 0.000000 0.000000 -1.000000
outer loop
vertex 1.276621 -0.608473 -17.500454
vertex 0.000000 0.000000 -17.500454
vertex 0.660263 0.234022 -17.500454
endloop
endfacet
facet normal -0.000004 0.000000 -1.000000
outer loop
vertex 0.660263 0.234022 -17.500454
vertex 0.000000 0.000000 -17.500454
vertex -0.255084 0.719687 -17.500454
endloop
endfacet
facet normal 0.000004 0.000000 -1.000000
outer loop
vertex 0.660263 0.234022 -17.500454
vertex -0.255084 0.719687 -17.500454
vertex 0.608473 1.276621 -17.500454
endloop
endfacet
facet normal 0.000000 0.000000 1.000000
outer loop
vertex 0.000000 0.700509 17.500454
vertex 0.000000 0.000000 17.500454
vertex 0.763556 0.000000 17.500454
endloop
endfacet
facet normal 0.000000 0.000000 1.000000
outer loop
vertex 0.000000 0.700509 17.500454
vertex 0.763556 0.000000 17.500454
vertex 1.000000 1.000000 17.500454
endloop
endfacet
facet normal 0.971015 -0.229591 -0.066471
outer loop
vertex 1.000000 1.000000 -12.558465
vertex 0.763556 0.000000 -12.558465
vertex 0.255084 -0.719687 -17.500454
endloop
endfacet
facet normal 0.102790 -0.944158 0.313049
outer loop
vertex 1.000000 1.000000 -12.558465
vertex 0.255084 -0.719687 -17.500454
vertex 1.276621 -0.608473 -17.500454
endloop
endfacet
facet normal -0.971015 0.229591 -0.066471
outer loop
vertex -1.000000 -1.000000 -12.558465
vertex -0.763556 0.000000 -12.558465
vertex -0.255084 0.719687 -17.500454
endloop
endfacet
facet normal -0.102790 0.944158 0.313049
outer loop
vertex -1.000000 -1.000000 -12.558465
vertex -0.255084 0.719687 -17.500454
vertex -1.276621 0.608473 -17.500454
endloop
endfacet
facet normal -0.970938 0.229573 -0.067645
outer loop
vertex -1.000000 -1.000000 17.500454
vertex -0.763556 0.000000 17.500454
vertex -0.239738 0.724943 12.442183
endloop
endfacet
facet normal -0.082783 0.946966 0.310487
outer loop
vertex -1.000000 -1.000000 17.500454
vertex -0.239738 0.724943 12.442183
vertex -1.263407 0.635455 12.442183
endloop
endfacet
facet normal -0.086300 0.987204 -0.134089
outer loop
vertex -1.263407 0.635455 12.442183
vertex -0.239738 0.724943 12.442183
vertex -0.763556 0.000000 7.442053
endloop
endfacet
facet normal -0.965469 0.228280 -0.125527
outer loop
vertex -1.263407 0.635455 12.442183
vertex -0.763556 0.000000 7.442053
vertex -1.000000 -1.000000 7.442053
endloop
endfacet
facet normal -0.966016 0.228409 -0.121002
outer loop
vertex -1.000000 -1.000000 7.442053
vertex -0.763556 0.000000 7.442053
vertex -0.302965 -0.700878 2.441924
endloop
endfacet
facet normal -0.592267 -0.795164 -0.130133
outer loop
vertex -1.000000 -1.000000 7.442053
vertex -0.302965 -0.700878 2.441924
vertex 0.521132 -1.314694 2.441924
endloop
endfacet
facet normal -0.596365 -0.800666 -0.057296
outer loop
vertex 0.521132 -1.314694 2.441924
vertex -0.302965 -0.700878 2.441924
vertex -0.763556 0.000000 -2.558206
endloop
endfacet
facet normal -0.929386 0.219748 0.296567
outer loop
vertex 0.521132 -1.314694 2.441924
vertex -0.763556 0.000000 -2.558206
vertex -1.000000 -1.000000 -2.558206
endloop
endfacet
facet normal -0.971359 0.229672 -0.060933
outer loop
vertex -1.000000 -1.000000 -2.558206
vertex -0.763556 0.000000 -2.558206
vertex -0.282139 0.709517 -7.558336
endloop
endfacet
facet normal -0.138950 0.942982 0.302452
outer loop
vertex -1.000000 -1.000000 -2.558206
vertex -0.282139 0.709517 -7.558336
vertex -1.298735 0.559721 -7.558336
endloop
endfacet
facet normal -0.144627 0.981514 -0.125352
outer loop
vertex -1.298735 0.559721 -7.558336
vertex -0.282139 0.709517 -7.558336
vertex -0.763556 0.000000 -12.558465
endloop
endfacet
facet normal -0.965056 0.228182 -0.128836
outer loop
vertex -1.298735 0.559721 -7.558336
vertex -0.763556 0.000000 -12.558465
vertex -1.000000 -1.000000 -12.558465
endloop
endfacet
facet normal 0.970938 -0.229573 -0.067645
outer loop
vertex 1.000000 1.000000 17.500454
vertex 0.763556 0.000000 17.500454
vertex 0.239738 -0.724943 12.442183
endloop
endfacet
facet normal 0.082783 -0.946966 0.310487
outer loop
vertex 1.000000 1.000000 17.500454
vertex 0.239738 -0.724943 12.442183
vertex 1.263407 -0.635455 12.442183
endloop
endfacet
facet normal 0.086300 -0.987204 -0.134089
outer loop
vertex 1.263407 -0.635455 12.442183
vertex 0.239738 -0.724943 12.442183
vertex 0.763556 0.000000 7.442053
endloop
endfacet
facet normal 0.965469 -0.228280 -0.125527
outer loop
vertex 1.263407 -0.635455 12.442183
vertex 0.763556 0.000000 7.442053
vertex 1.000000 1.000000 7.442053
endloop
endfacet
facet normal 0.966016 -0.228409 -0.121002
outer loop
vertex 1.000000 1.000000 7.442053
vertex 0.763556 0.000000 7.442053
vertex 0.302965 0.700878 2.441924
endloop
endfacet
facet normal 0.592267 0.795164 -0.130133
outer loop
vertex 1.000000 1.000000 7.442053
vertex 0.302965 0.700878 2.441924
vertex -0.521132 1.314694 2.441924
endloop
endfacet
facet normal 0.596365 0.800666 -0.057296
outer loop
vertex -0.521132 1.314694 2.441924
vertex 0.302965 0.700878 2.441924
vertex 0.763556 0.000000 -2.558206
endloop
endfacet
facet normal 0.929386 -0.219748 0.296567
outer loop
vertex -0.521132 1.314694 2.441924
vertex 0.763556 0.000000 -2.558206
vertex 1.000000 1.000000 -2.558206
endloop
endfacet
facet normal 0.971359 -0.229672 -0.060933
outer loop
vertex 1.000000 1.000000 -2.558206
vertex 0.763556 0.000000 -2.558206
vertex 0.282139 -0.709517 -7.558336
endloop
endfacet
facet normal 0.138950 -0.942982 0.302452
outer loop
vertex 1.000000 1.000000 -2.558206
vertex 0.282139 -0.709517 -7.558336
vertex 1.298735 -0.559721 -7.558336
endloop
endfacet
facet normal 0.144627 -0.981514 -0.125352
outer loop
vertex 1.298735 -0.559721 -7.558336
vertex 0.282139 -0.709517 -7.558336
vertex 0.763556 0.000000 -12.558465
endloop
endfacet
facet normal 0.965056 -0.228182 -0.128836
outer loop
vertex 1.298735 -0.559721 -7.558336
vertex 0.763556 0.000000 -12.558465
vertex 1.000000 1.000000 -12.558465
endloop
endfacet
facet normal 0.286493 0.956603 -0.053214
outer loop
vertex -1.000000 1.000000 17.500454
vertex 0.000000 0.700509 17.500454
vertex 0.665085 0.219943 12.442183
endloop
endfacet
facet normal 0.950743 0.026997 0.308803
outer loop
vertex -1.000000 1.000000 17.500454
vertex 0.665085 0.219943 12.442183
vertex 0.635455 1.263407 12.442183
endloop
endfacet
facet normal 0.991227 0.028147 -0.129141
outer loop
vertex 0.635455 1.263407 12.442183
vertex 0.665085 0.219943 12.442183
vertex 0.000000 0.700509 7.442053
endloop
endfacet
facet normal 0.283959 0.948139 -0.142826
outer loop
vertex 0.635455 1.263407 12.442183
vertex 0.000000 0.700509 7.442053
vertex -1.000000 1.000000 7.442053
endloop
endfacet
facet normal 0.284928 0.951376 -0.117042
outer loop
vertex -1.000000 1.000000 7.442053
vertex 0.000000 0.700509 7.442053
vertex -0.643007 0.277949 2.441924
endloop
endfacet
facet normal -0.757287 0.636556 -0.145991
outer loop
vertex -1.000000 1.000000 7.442053
vertex -0.643007 0.277949 2.441924
vertex -1.314694 -0.521132 2.441924
endloop
endfacet
facet normal -0.764746 0.642826 -0.044020
outer loop
vertex -1.314694 -0.521132 2.441924
vertex -0.643007 0.277949 2.441924
vertex 0.000000 0.700509 -2.558206
endloop
endfacet
facet normal 0.274075 0.915136 0.295651
outer loop
vertex -1.314694 -0.521132 2.441924
vertex 0.000000 0.700509 -2.558206
vertex -1.000000 1.000000 -2.558206
endloop
endfacet
facet normal 0.286580 0.956892 -0.047215
outer loop
vertex -1.000000 1.000000 -2.558206
vertex 0.000000 0.700509 -2.558206
vertex 0.650933 0.258843 -7.558336
endloop
endfacet
facet normal 0.949888 0.083318 0.301282
outer loop
vertex -1.000000 1.000000 -2.558206
vertex 0.650933 0.258843 -7.558336
vertex 0.559721 1.298735 -7.558336
endloop
endfacet
facet normal 0.988847 0.086735 -0.121070
outer loop
vertex 0.559721 1.298735 -7.558336
vertex 0.650933 0.258843 -7.558336
vertex 0.000000 0.700509 -12.558465
endloop
endfacet
facet normal 0.283861 0.947812 -0.145174
outer loop
vertex 0.559721 1.298735 -7.558336
vertex 0.000000 0.700509 -12.558465
vertex -1.000000 1.000000 -12.558465
endloop
endfacet
facet normal -0.286493 -0.956603 -0.053214
outer loop
vertex 1.000000 -1.000000 17.500454
vertex 0.000000 -0.700509 17.500454
vertex -0.665085 -0.219943 12.442183
endloop
endfacet
facet normal -0.950743 -0.026997 0.308803
outer loop
vertex 1.000000 -1.000000 17.500454
vertex -0.665085 -0.219943 12.442183
vertex -0.635455 -1.263407 12.442183
endloop
endfacet
facet normal -0.991227 -0.028147 -0.129141
outer loop
vertex -0.635455 -1.263407 12.442183
vertex -0.665085 -0.219943 12.442183
vertex 0.000000 -0.700509 7.442053
endloop
endfacet
facet normal -0.283959 -0.948139 -0.142826
outer loop
vertex -0.635455 -1.263407 12.442183
vertex 0.000000 -0.700509 7.442053
vertex 1.000000 -1.000000 7.442053
endloop
endfacet
facet normal -0.284928 -0.951376 -0.117042
outer loop
vertex 1.000000 -1.000000 7.442053
vertex 0.000000 -0.700509 7.442053
vertex 0.643007 -0.277949 2.441924
endloop
endfacet
facet normal 0.757287 -0.636556 -0.145991
outer loop
vertex 1.000000 -1.000000 7.442053
vertex 0.643007 -0.277949 2.441924
vertex 1.314694 0.521132 2.441924
endloop
endfacet
facet normal 0.764746 -0.642826 -0.044020
outer loop
vertex 1.314694 0.521132 2.441924
vertex 0.643007 -0.277949 2.441924
vertex 0.000000 -0.700509 -2.558206
endloop
endfacet
facet normal -0.274075 -0.915136 0.295651
outer loop
vertex 1.314694 0.521132 2.441924
vertex 0.000000 -0.700509 -2.558206
vertex 1.000000 -1.000000 -2.558206
endloop
endfacet
facet normal -0.286580 -0.956892 -0.047215
outer loop
vertex 1.000000 -1.000000 -2.558206
vertex 0.000000 -0.700509 -2.558206
vertex -0.650933 -0.258843 -7.558336
endloop
endfacet
facet normal -0.949888 -0.083318 0.301282
outer loop
vertex 1.000000 -1.000000 -2.558206
vertex -0.650933 -0.258843 -7.558336
vertex -0.559721 -1.298735 -7.558336
endloop
endfacet
facet normal -0.988847 -0.086735 -0.121070
outer loop
vertex -0.559721 -1.298735 -7.558336
vertex -0.650933 -0.258843 -7.558336
vertex 0.000000 -0.700509 -12.558465
endloop
endfacet
facet normal -0.283861 -0.947812 -0.145174
outer loop
vertex -0.559721 -1.298735 -7.558336
vertex 0.000000 -0.700509 -12.558465
vertex 1.000000 -1.000000 -12.558465
endloop
endfacet
facet normal 0.272878 -0.911141 -0.308803
outer loop
vertex 0.000000 -0.700509 17.500454
vertex -1.000000 -1.000000 17.500454
vertex -1.263407 0.635455 12.442183
endloop
endfacet
facet normal -0.818277 -0.572356 0.053214
outer loop
vertex 0.000000 -0.700509 17.500454
vertex -1.263407 0.635455 12.442183
vertex -0.665085 -0.219943 12.442183
endloop
endfacet
facet normal -0.811037 -0.567292 0.142826
outer loop
vertex -0.665085 -0.219943 12.442183
vertex -1.263407 0.635455 12.442183
vertex -1.000000 -1.000000 7.442053
endloop
endfacet
facet normal 0.284498 -0.949939 0.129141
outer loop
vertex -0.665085 -0.219943 12.442183
vertex -1.000000 -1.000000 7.442053
vertex 0.000000 -0.700509 7.442053
endloop
endfacet
facet normal 0.283826 -0.947697 0.145991
outer loop
vertex 0.000000 -0.700509 7.442053
vertex -1.000000 -1.000000 7.442053
vertex 0.521132 -1.314694 2.441924
endloop
endfacet
facet normal 0.986335 -0.115949 0.117042
outer loop
vertex 0.000000 -0.700509 7.442053
vertex 0.521132 -1.314694 2.441924
vertex 0.643007 -0.277949 2.441924
endloop
endfacet
facet normal 0.948763 -0.111532 -0.295651
outer loop
vertex 0.643007 -0.277949 2.441924
vertex 0.521132 -1.314694 2.441924
vertex -1.000000 -1.000000 -2.558206
endloop
endfacet
facet normal 0.286622 -0.957032 0.044020
outer loop
vertex 0.643007 -0.277949 2.441924
vertex -1.000000 -1.000000 -2.558206
vertex 0.000000 -0.700509 -2.558206
endloop
endfacet
facet normal 0.273570 -0.913449 -0.301282
outer loop
vertex 0.000000 -0.700509 -2.558206
vertex -1.000000 -1.000000 -2.558206
vertex -1.298735 0.559721 -7.558336
endloop
endfacet
facet normal -0.783277 -0.619877 0.047215
outer loop
vertex 0.000000 -0.700509 -2.558206
vertex -1.298735 0.559721 -7.558336
vertex -0.650933 -0.258843 -7.558336
endloop
endfacet
facet normal -0.775845 -0.613995 0.145174
outer loop
vertex -0.650933 -0.258843 -7.558336
vertex -1.298735 0.559721 -7.558336
vertex -1.000000 -1.000000 -12.558465
endloop
endfacet
facet normal 0.284790 -0.950914 0.121070
outer loop
vertex -0.650933 -0.258843 -7.558336
vertex -1.000000 -1.000000 -12.558465
vertex 0.000000 -0.700509 -12.558465
endloop
endfacet
facet normal 0.925071 0.218728 -0.310487
outer loop
vertex 0.763556 0.000000 17.500454
vertex 1.000000 -1.000000 17.500454
vertex -0.635455 -1.263407 12.442183
endloop
endfacet
facet normal 0.522815 -0.849758 0.067645
outer loop
vertex 0.763556 0.000000 17.500454
vertex -0.635455 -1.263407 12.442183
vertex 0.239738 -0.724943 12.442183
endloop
endfacet
facet normal 0.519870 -0.844972 0.125527
outer loop
vertex 0.239738 -0.724943 12.442183
vertex -0.635455 -1.263407 12.442183
vertex 1.000000 -1.000000 7.442053
endloop
endfacet
facet normal 0.964379 0.228022 0.134089
outer loop
vertex 0.239738 -0.724943 12.442183
vertex 1.000000 -1.000000 7.442053
vertex 0.763556 0.000000 7.442053
endloop
endfacet
facet normal 0.964892 0.228143 0.130133
outer loop
vertex 0.763556 0.000000 7.442053
vertex 1.000000 -1.000000 7.442053
vertex 1.314694 0.521132 2.441924
endloop
endfacet
facet normal 0.173637 0.977348 0.121002
outer loop
vertex 0.763556 0.000000 7.442053
vertex 1.314694 0.521132 2.441924
vertex 0.302965 0.700878 2.441924
endloop
endfacet
facet normal 0.167053 0.940288 -0.296567
outer loop
vertex 0.302965 0.700878 2.441924
vertex 1.314694 0.521132 2.441924
vertex 1.000000 -1.000000 -2.558206
endloop
endfacet
facet normal 0.971568 0.229722 0.057296
outer loop
vertex 0.302965 0.700878 2.441924
vertex 1.000000 -1.000000 -2.558206
vertex 0.763556 0.000000 -2.558206
endloop
endfacet
facet normal 0.927588 0.219323 -0.302452
outer loop
vertex 0.763556 0.000000 -2.558206
vertex 1.000000 -1.000000 -2.558206
vertex -0.559721 -1.298735 -7.558336
endloop
endfacet
facet normal 0.572342 -0.817748 0.060933
outer loop
vertex 0.763556 0.000000 -2.558206
vertex -0.559721 -1.298735 -7.558336
vertex 0.282139 -0.709517 -7.558336
endloop
endfacet
facet normal 0.568629 -0.812442 0.128836
outer loop
vertex 0.282139 -0.709517 -7.558336
vertex -0.559721 -1.298735 -7.558336
vertex 1.000000 -1.000000 -12.558465
endloop
endfacet
facet normal 0.965491 0.228285 0.125352
outer loop
vertex 0.282139 -0.709517 -7.558336
vertex 1.000000 -1.000000 -12.558465
vertex 0.763556 0.000000 -12.558465
endloop
endfacet
facet normal -0.272878 0.911141 -0.308803
outer loop
vertex 0.000000 0.700509 17.500454
vertex 1.000000 1.000000 17.500454
vertex 1.263407 -0.635455 12.442183
endloop
endfacet
facet normal 0.818277 0.572356 0.053214
outer loop
vertex 0.000000 0.700509 17.500454
vertex 1.263407 -0.635455 12.442183
vertex 0.665085 0.219943 12.442183
endloop
endfacet
facet normal 0.811037 0.567292 0.142826
outer loop
vertex 0.665085 0.219943 12.442183
vertex 1.263407 -0.635455 12.442183
vertex 1.000000 1.000000 7.442053
endloop
endfacet
facet normal -0.284498 0.949939 0.129141
outer loop
vertex 0.665085 0.219943 12.442183
vertex 1.000000 1.000000 7.442053
vertex 0.000000 0.700509 7.442053
endloop
endfacet
facet normal -0.283826 0.947697 0.145991
outer loop
vertex 0.000000 0.700509 7.442053
vertex 1.000000 1.000000 7.442053
vertex -0.521132 1.314694 2.441924
endloop
endfacet
facet normal -0.986335 0.115949 0.117042
outer loop
vertex 0.000000 0.700509 7.442053
vertex -0.521132 1.314694 2.441924
vertex -0.643007 0.277949 2.441924
endloop
endfacet
facet normal -0.948763 0.111532 -0.295651
outer loop
vertex -0.643007 0.277949 2.441924
vertex -0.521132 1.314694 2.441924
vertex 1.000000 1.000000 -2.558206
endloop
endfacet
facet normal -0.286622 0.957032 0.044020
outer loop
vertex -0.643007 0.277949 2.441924
vertex 1.000000 1.000000 -2.558206
vertex 0.000000 0.700509 -2.558206
endloop
endfacet
facet normal -0.273570 0.913449 -0.301282
outer loop
vertex 0.000000 0.700509 -2.558206
vertex 1.000000 1.000000 -2.558206
vertex 1.298735 -0.559721 -7.558336
endloop
endfacet
facet normal 0.783277 0.619877 0.047215
outer loop
vertex 0.000000 0.700509 -2.558206
vertex 1.298735 -0.559721 -7.558336
vertex 0.650933 0.258843 -7.558336
endloop
endfacet
facet normal 0.775845 0.613995 0.145174
outer loop
vertex 0.650933 0.258843 -7.558336
vertex 1.298735 -0.559721 -7.558336
vertex 1.000000 1.000000 -12.558465
endloop
endfacet
facet normal -0.284790 0.950914 0.121070
outer loop
vertex 0.650933 0.258843 -7.558336
vertex 1.000000 1.000000 -12.558465
vertex 0.000000 0.700509 -12.558465
endloop
endfacet
facet normal -0.925071 -0.218728 -0.310487
outer loop
vertex -0.763556 0.000000 17.500454
vertex -1.000000 1.000000 17.500454
vertex 0.635455 1.263407 12.442183
endloop
endfacet
facet normal -0.522815 0.849758 0.067645
outer loop
vertex -0.763556 0.000000 17.500454
vertex 0.635455 1.263407 12.442183
vertex -0.239738 0.724943 12.442183
endloop
endfacet
facet normal -0.519870 0.844972 0.125527
outer loop
vertex -0.239738 0.724943 12.442183
vertex 0.635455 1.263407 12.442183
vertex -1.000000 1.000000 7.442053
endloop
endfacet
facet normal -0.964379 -0.228022 0.134089
outer loop
vertex -0.239738 0.724943 12.442183
vertex -1.000000 1.000000 7.442053
vertex -0.763556 0.000000 7.442053
endloop
endfacet
facet normal -0.964892 -0.228143 0.130133
outer loop
vertex -0.763556 0.000000 7.442053
vertex -1.000000 1.000000 7.442053
vertex -1.314694 -0.521132 2.441924
endloop
endfacet
facet normal -0.173637 -0.977348 0.121002
outer loop
vertex -0.763556 0.000000 7.442053
vertex -1.314694 -0.521132 2.441924
vertex -0.302965 -0.700878 2.441924
endloop
endfacet
facet normal -0.167053 -0.940288 -0.296567
outer loop
vertex -0.302965 -0.700878 2.441924
vertex -1.314694 -0.521132 2.441924
vertex -1.000000 1.000000 -2.558206
endloop
endfacet
facet normal -0.971568 -0.229722 0.057296
outer loop
vertex -0.302965 -0.700878 2.441924
vertex -1.000000 1.000000 -2.558206
vertex -0.763556 0.000000 -2.558206
endloop
endfacet
facet normal -0.927588 -0.219323 -0.302452
outer loop
vertex -0.763556 0.000000 -2.558206
vertex -1.000000 1.000000 -2.558206
vertex 0.559721 1.298735 -7.558336
endloop
endfacet
facet normal -0.572342 0.817748 0.060933
outer loop
vertex -0.763556 0.000000 -2.558206
vertex 0.559721 1.298735 -7.558336
vertex -0.282139 0.709517 -7.558336
endloop
endfacet
facet normal -0.568629 0.812442 0.128836
outer loop
vertex -0.282139 0.709517 -7.558336
vertex 0.559721 1.298735 -7.558336
vertex -1.000000 1.000000 -12.558465
endloop
endfacet
facet normal -0.965491 -0.228285 0.125352
outer loop
vertex -0.282139 0.709517 -7.558336
vertex -1.000000 1.000000 -12.558465
vertex -0.763556 0.000000 -12.558465
endloop
endfacet
endsolid Exported from Blender-2.80 (sub 75)
