solid Exported from Blender-2.80 (sub 75)
facet normal 0.000000 0.000000 -1.000000
outer loop
vertex 0.286179 -0.267432 -3.849568
vertex -0.286179 -0.267432 -3.849568
vertex -0.286179 0.267432 -3.849568
endloop
endfacet
facet normal 0.000000 0.000000 -1.000000
outer loop
vertex 0.286179 -0.267432 -3.849568
vertex -0.286179 0.267432 -3.849568
vertex 0.286179 0.267432 -3.849568
endloop
endfacet
facet normal 0.000000 1.000000 0.000000
outer loop
vertex 0.286179 0.267432 -3.102155
vertex 0.286179 0.267432 -3.849568
vertex -0.286179 0.267432 -3.849568
endloop
endfacet
facet normal 0.000000 1.000000 0.000000
outer loop
vertex 0.286179 0.267432 -3.102155
vertex -0.286179 0.267432 -3.849568
vertex -0.286179 0.267432 -3.102155
endloop
endfacet
facet normal -1.000000 0.000000 0.000000
outer loop
vertex -0.286179 0.267432 -3.102155
vertex -0.286179 0.267432 -3.849568
vertex -0.286179 -0.267432 -3.849568
endloop
endfacet
facet normal -1.000000 0.000000 0.000000
outer loop
vertex -0.286179 0.267432 -3.102155
vertex -0.286179 -0.267432 -3.849568
vertex -0.286179 -0.267432 -3.102155
endloop
endfacet
facet normal 0.000000 0.000000 1.000000
outer loop
vertex -0.286179 -0.267432 3.849568
vertex 0.286179 -0.267432 3.849568
vertex 0.286179 0.267432 3.849568
endloop
endfacet
facet normal 0.000000 0.000000 1.000000
outer loop
vertex -0.286179 -0.267432 3.849568
vertex 0.286179 0.267432 3.849568
vertex -0.286179 0.267432 3.849568
endloop
endfacet
facet normal 1.000000 0.000000 0.000000
outer loop
vertex 0.286179 -0.267432 -3.102155
vertex 0.286179 -0.267432 -3.849568
vertex 0.286179 0.267432 -3.849568
endloop
endfacet
facet normal 1.000000 0.000000 0.000000
outer loop
vertex 0.286179 -0.267432 -3.102155
vertex 0.286179 0.267432 -3.849568
vertex 0.286179 0.267432 -3.102155
endloop
endfacet
facet normal 0.000000 -1.000000 0.000000
outer loop
vertex -0.286179 -0.267432 -3.102155
vertex -0.286179 -0.267432 -3.849568
vertex 0.286179 -0.267432 -3.849568
endloop
endfacet
facet normal 0.000000 -1.000000 0.000000
outer loop
vertex -0.286179 -0.267432 -3.102155
vertex 0.286179 -0.267432 -3.849568
vertex 0.286179 -0.267432 -3.102155
endloop
endfacet
facet normal 0.000000 -1.000000 0.000000
outer loop
vertex -0.286179 -0.267432 3.849568
vertex -0.286179 -0.267432 3.094751
vertex 0.286179 -0.267432 3.094751
endloop
endfacet
facet normal 0.000000 -1.000000 0.000000
outer loop
vertex -0.286179 -0.267432 3.849568
vertex 0.286179 -0.267432 3.094751
vertex 0.286179 -0.267432 3.849568
endloop
endfacet
facet normal 1.000000 0.000000 0.000000
outer loop
vertex 0.286179 -0.267432 3.849568
vertex 0.286179 -0.267432 3.094751
vertex 0.286179 0.267432 3.094751
endloop
endfacet
facet normal 1.000000 0.000000 0.000000
outer loop
vertex 0.286179 -0.267432 3.849568
vertex 0.286179 0.267432 3.094751
vertex 0.286179 0.267432 3.849568
endloop
endfacet
facet normal -1.000000 0.000000 0.000000
outer loop
vertex -0.286179 0.267432 3.849568
vertex -0.286179 0.267432 3.094751
vertex -0.286179 -0.267432 3.094751
endloop
endfacet
facet normal -1.000000 0.000000 0.000000
outer loop
vertex -0.286179 0.267432 3.849568
vertex -0.286179 -0.267432 3.094751
vertex -0.286179 -0.267432 3.849568
endloop
endfacet
facet normal 0.000000 1.000000 0.000000
outer loop
vertex 0.286179 0.267432 3.849568
vertex 0.286179 0.267432 3.094751
vertex -0.286179 0.267432 3.094751
endloop
endfacet
facet normal 0.000000 1.000000 0.000000
outer loop
vertex 0.286179 0.267432 3.849568
vertex -0.286179 0.267432 3.094751
vertex -0.286179 0.267432 3.849568
endloop
endfacet
facet normal 0.000000 -0.767724 0.640781
outer loop
vertex -0.142308 -0.132985 -2.941074
vertex -0.286179 -0.267432 -3.102155
vertex 0.286179 -0.267432 -3.102155
endloop
endfacet
facet normal 0.000000 -0.767724 0.640781
outer loop
vertex -0.142308 -0.132985 -2.941074
vertex 0.286179 -0.267432 -3.102155
vertex 0.142308 -0.132985 -2.941074
endloop
endfacet
facet normal 0.745825 0.000000 0.666142
outer loop
vertex 0.142308 -0.132985 -2.941074
vertex 0.286179 -0.267432 -3.102155
vertex 0.286179 0.267432 -3.102155
endloop
endfacet
facet normal 0.745826 0.000000 0.666140
outer loop
vertex 0.142308 -0.132985 -2.941074
vertex 0.286179 0.267432 -3.102155
vertex 0.142308 0.132985 -2.941074
endloop
endfacet
facet normal -0.745825 0.000000 0.666142
outer loop
vertex -0.142308 0.132985 -2.941074
vertex -0.286179 0.267432 -3.102155
vertex -0.286179 -0.267432 -3.102155
endloop
endfacet
facet normal -0.745826 0.000000 0.666140
outer loop
vertex -0.142308 0.132985 -2.941074
vertex -0.286179 -0.267432 -3.102155
vertex -0.142308 -0.132985 -2.941074
endloop
endfacet
facet normal 0.000000 0.767724 0.640781
outer loop
vertex 0.142308 0.132985 -2.941074
vertex 0.286179 0.267432 -3.102155
vertex -0.286179 0.267432 -3.102155
endloop
endfacet
facet normal 0.000000 0.767724 0.640781
outer loop
vertex 0.142308 0.132985 -2.941074
vertex -0.286179 0.267432 -3.102155
vertex -0.142308 0.132985 -2.941074
endloop
endfacet
facet normal 0.000000 0.998045 -0.062504
outer loop
vertex 0.387846 0.362438 0.722763
vertex 0.142308 0.132985 -2.941074
vertex -0.142308 0.132985 -2.941074
endloop
endfacet
facet normal 0.000000 0.998045 -0.062504
outer loop
vertex 0.387846 0.362438 0.722763
vertex -0.142308 0.132985 -2.941074
vertex -0.387846 0.362438 0.722763
endloop
endfacet
facet normal -0.997762 0.000000 -0.066867
outer loop
vertex -0.387846 0.362438 0.722763
vertex -0.142308 0.132985 -2.941074
vertex -0.142308 -0.132985 -2.941074
endloop
endfacet
facet normal -0.997762 0.000000 -0.066867
outer loop
vertex -0.387846 0.362438 0.722763
vertex -0.142308 -0.132985 -2.941074
vertex -0.387846 -0.362438 0.722763
endloop
endfacet
facet normal 0.997762 0.000000 -0.066867
outer loop
vertex 0.387846 -0.362438 0.722763
vertex 0.142308 -0.132985 -2.941074
vertex 0.142308 0.132985 -2.941074
endloop
endfacet
facet normal 0.997762 0.000000 -0.066867
outer loop
vertex 0.387846 -0.362438 0.722763
vertex 0.142308 0.132985 -2.941074
vertex 0.387846 0.362438 0.722763
endloop
endfacet
facet normal 0.000000 -0.998045 -0.062504
outer loop
vertex -0.387846 -0.362438 0.722763
vertex -0.142308 -0.132985 -2.941074
vertex 0.142308 -0.132985 -2.941074
endloop
endfacet
facet normal 0.000000 -0.998045 -0.062504
outer loop
vertex -0.387846 -0.362438 0.722763
vertex 0.142308 -0.132985 -2.941074
vertex 0.387846 -0.362438 0.722763
endloop
endfacet
facet normal 0.000000 -0.978202 0.207655
outer loop
vertex -0.127422 -0.119075 2.911416
vertex -0.405755 -0.379175 1.686162
vertex 0.405755 -0.379175 1.686162
endloop
endfacet
facet normal 0.000000 -0.978202 0.207655
outer loop
vertex -0.127422 -0.119075 2.911416
vertex 0.405755 -0.379175 1.686162
vertex 0.127422 -0.119075 2.911416
endloop
endfacet
facet normal 0.975156 0.000000 0.221520
outer loop
vertex 0.127422 -0.119075 2.911416
vertex 0.405755 -0.379175 1.686162
vertex 0.405755 0.379175 1.686162
endloop
endfacet
facet normal 0.975156 0.000000 0.221520
outer loop
vertex 0.127422 -0.119075 2.911416
vertex 0.405755 0.379175 1.686162
vertex 0.127422 0.119075 2.911416
endloop
endfacet
facet normal -0.975156 0.000000 0.221520
outer loop
vertex -0.127422 0.119075 2.911416
vertex -0.405755 0.379175 1.686162
vertex -0.405755 -0.379175 1.686162
endloop
endfacet
facet normal -0.975156 0.000000 0.221520
outer loop
vertex -0.127422 0.119075 2.911416
vertex -0.405755 -0.379175 1.686162
vertex -0.127422 -0.119075 2.911416
endloop
endfacet
facet normal 0.000000 0.978202 0.207655
outer loop
vertex 0.127422 0.119075 2.911416
vertex 0.405755 0.379175 1.686162
vertex -0.405755 0.379175 1.686162
endloop
endfacet
facet normal 0.000000 0.978202 0.207655
outer loop
vertex 0.127422 0.119075 2.911416
vertex -0.405755 0.379175 1.686162
vertex -0.127422 0.119075 2.911416
endloop
endfacet
facet normal 0.000000 0.777362 -0.629053
outer loop
vertex 0.286179 0.267432 3.094751
vertex 0.127422 0.119075 2.911416
vertex -0.127422 0.119075 2.911416
endloop
endfacet
facet normal 0.000000 0.777362 -0.629053
outer loop
vertex 0.286179 0.267432 3.094751
vertex -0.127422 0.119075 2.911416
vertex -0.286179 0.267432 3.094751
endloop
endfacet
facet normal -0.755961 0.000000 -0.654617
outer loop
vertex -0.286179 0.267432 3.094751
vertex -0.127422 0.119075 2.911416
vertex -0.127422 -0.119075 2.911416
endloop
endfacet
facet normal -0.755960 0.000000 -0.654618
outer loop
vertex -0.286179 0.267432 3.094751
vertex -0.127422 -0.119075 2.911416
vertex -0.286179 -0.267432 3.094751
endloop
endfacet
facet normal 0.755961 0.000000 -0.654617
outer loop
vertex 0.286179 -0.267432 3.094751
vertex 0.127422 -0.119075 2.911416
vertex 0.127422 0.119075 2.911416
endloop
endfacet
facet normal 0.755960 0.000000 -0.654618
outer loop
vertex 0.286179 -0.267432 3.094751
vertex 0.127422 0.119075 2.911416
vertex 0.286179 0.267432 3.094751
endloop
endfacet
facet normal 0.000000 -0.777362 -0.629053
outer loop
vertex -0.286179 -0.267432 3.094751
vertex -0.127422 -0.119075 2.911416
vertex 0.127422 -0.119075 2.911416
endloop
endfacet
facet normal 0.000000 -0.777362 -0.629053
outer loop
vertex -0.286179 -0.267432 3.094751
vertex 0.127422 -0.119075 2.911416
vertex 0.286179 -0.267432 3.094751
endloop
endfacet
facet normal 0.000000 -0.999849 -0.017370
outer loop
vertex -0.405755 -0.379175 1.686162
vertex -0.387846 -0.362438 0.722763
vertex 0.387846 -0.362438 0.722763
endloop
endfacet
facet normal 0.000000 -0.999849 -0.017370
outer loop
vertex -0.405755 -0.379175 1.686162
vertex 0.387846 -0.362438 0.722763
vertex 0.405755 -0.379175 1.686162
endloop
endfacet
facet normal 0.999827 0.000000 -0.018587
outer loop
vertex 0.405755 -0.379175 1.686162
vertex 0.387846 -0.362438 0.722763
vertex 0.387846 0.362438 0.722763
endloop
endfacet
facet normal 0.999827 0.000000 -0.018587
outer loop
vertex 0.405755 -0.379175 1.686162
vertex 0.387846 0.362438 0.722763
vertex 0.405755 0.379175 1.686162
endloop
endfacet
facet normal -0.999827 0.000000 -0.018587
outer loop
vertex -0.405755 0.379175 1.686162
vertex -0.387846 0.362438 0.722763
vertex -0.387846 -0.362438 0.722763
endloop
endfacet
facet normal -0.999827 0.000000 -0.018587
outer loop
vertex -0.405755 0.379175 1.686162
vertex -0.387846 -0.362438 0.722763
vertex -0.405755 -0.379175 1.686162
endloop
endfacet
facet normal 0.000000 0.999849 -0.017370
outer loop
vertex 0.405755 0.379175 1.686162
vertex 0.387846 0.362438 0.722763
vertex -0.387846 0.362438 0.722763
endloop
endfacet
facet normal 0.000000 0.999849 -0.017370
outer loop
vertex 0.405755 0.379175 1.686162
vertex -0.387846 0.362438 0.722763
vertex -0.405755 0.379175 1.686162
endloop
endfacet
endsolid Exported from Blender-2.80 (sub 75)
