solid Exported from Blender-2.80 (sub 75)
facet normal 0.000000 -1.000000 -0.000000
outer loop
vertex 0.493423 -0.781253 -0.411186
vertex 0.493423 -0.781253 0.411185
vertex 0.411186 -0.781253 0.411185
endloop
endfacet
facet normal 0.000000 -1.000000 0.000000
outer loop
vertex 0.493423 -0.781253 -0.411186
vertex 0.411186 -0.781253 0.411185
vertex 0.411186 -0.781253 -0.411186
endloop
endfacet
facet normal 1.000000 0.000000 0.000000
outer loop
vertex 0.493423 -0.699015 -0.411186
vertex 0.493423 -0.699016 0.411185
vertex 0.493423 -0.781253 0.411185
endloop
endfacet
facet normal 1.000000 0.000000 0.000000
outer loop
vertex 0.493423 -0.699015 -0.411186
vertex 0.493423 -0.781253 0.411185
vertex 0.493423 -0.781253 -0.411186
endloop
endfacet
facet normal 0.000000 1.000000 0.000000
outer loop
vertex 0.411186 -0.699015 -0.411186
vertex 0.411186 -0.699016 0.411185
vertex 0.493423 -0.699016 0.411185
endloop
endfacet
facet normal 0.000000 1.000000 0.000000
outer loop
vertex 0.411186 -0.699015 -0.411186
vertex 0.493423 -0.699016 0.411185
vertex 0.493423 -0.699015 -0.411186
endloop
endfacet
facet normal -1.000000 0.000000 0.000000
outer loop
vertex 0.411186 -0.781253 -0.411186
vertex 0.411186 -0.781253 0.411185
vertex 0.411186 -0.699016 0.411185
endloop
endfacet
facet normal -1.000000 0.000000 0.000000
outer loop
vertex 0.411186 -0.781253 -0.411186
vertex 0.411186 -0.699016 0.411185
vertex 0.411186 -0.699015 -0.411186
endloop
endfacet
facet normal 0.000000 0.000000 1.000000
outer loop
vertex 0.493423 -0.781253 0.411185
vertex 0.493423 -0.699016 0.411185
vertex 0.411186 -0.699016 0.411185
endloop
endfacet
facet normal 0.000000 0.000000 1.000000
outer loop
vertex 0.493423 -0.781253 0.411185
vertex 0.411186 -0.699016 0.411185
vertex 0.411186 -0.781253 0.411185
endloop
endfacet
facet normal 0.000000 0.000000 -1.000000
outer loop
vertex 0.493423 -0.699015 -0.411186
vertex 0.493423 -0.781253 -0.411186
vertex 0.411186 -0.781253 -0.411186
endloop
endfacet
facet normal 0.000000 0.000000 -1.000000
outer loop
vertex 0.493423 -0.699015 -0.411186
vertex 0.411186 -0.781253 -0.411186
vertex 0.411186 -0.699015 -0.411186
endloop
endfacet
facet normal 0.000000 -1.000000 0.000000
outer loop
vertex 0.411186 0.698266 0.205593
vertex 0.411186 0.698266 0.287830
vertex -0.411186 0.698266 0.287830
endloop
endfacet
facet normal 0.000000 -1.000000 0.000000
outer loop
vertex 0.411186 0.698266 0.205593
vertex -0.411186 0.698266 0.287830
vertex -0.411186 0.698266 0.205593
endloop
endfacet
facet normal 1.000000 0.000000 0.000000
outer loop
vertex 0.411186 0.780503 0.205593
vertex 0.411186 0.780503 0.287830
vertex 0.411186 0.698266 0.287830
endloop
endfacet
facet normal 1.000000 0.000000 0.000000
outer loop
vertex 0.411186 0.780503 0.205593
vertex 0.411186 0.698266 0.287830
vertex 0.411186 0.698266 0.205593
endloop
endfacet
facet normal 0.000000 1.000000 0.000000
outer loop
vertex -0.411186 0.780503 0.205593
vertex -0.411186 0.780503 0.287830
vertex 0.411186 0.780503 0.287830
endloop
endfacet
facet normal 0.000000 1.000000 0.000000
outer loop
vertex -0.411186 0.780503 0.205593
vertex 0.411186 0.780503 0.287830
vertex 0.411186 0.780503 0.205593
endloop
endfacet
facet normal -1.000000 0.000000 0.000000
outer loop
vertex -0.411186 0.698266 0.205593
vertex -0.411186 0.698266 0.287830
vertex -0.411186 0.780503 0.287830
endloop
endfacet
facet normal -1.000000 0.000000 0.000000
outer loop
vertex -0.411186 0.698266 0.205593
vertex -0.411186 0.780503 0.287830
vertex -0.411186 0.780503 0.205593
endloop
endfacet
facet normal 0.000000 0.000000 1.000000
outer loop
vertex 0.411186 0.698266 0.287830
vertex 0.411186 0.780503 0.287830
vertex -0.411186 0.780503 0.287830
endloop
endfacet
facet normal 0.000000 0.000000 1.000000
outer loop
vertex 0.411186 0.698266 0.287830
vertex -0.411186 0.780503 0.287830
vertex -0.411186 0.698266 0.287830
endloop
endfacet
facet normal 0.000000 0.000000 -1.000000
outer loop
vertex 0.411186 0.780503 0.205593
vertex 0.411186 0.698266 0.205593
vertex -0.411186 0.698266 0.205593
endloop
endfacet
facet normal 0.000000 0.000000 -1.000000
outer loop
vertex 0.411186 0.780503 0.205593
vertex -0.411186 0.698266 0.205593
vertex -0.411186 0.780503 0.205593
endloop
endfacet
facet normal 0.000000 -1.000000 0.000000
outer loop
vertex 0.411186 -0.776434 0.205593
vertex 0.411186 -0.776434 0.287830
vertex -0.411186 -0.776434 0.287830
endloop
endfacet
facet normal 0.000000 -1.000000 0.000000
outer loop
vertex 0.411186 -0.776434 0.205593
vertex -0.411186 -0.776434 0.287830
vertex -0.411186 -0.776434 0.205593
endloop
endfacet
facet normal 1.000000 0.000000 0.000000
outer loop
vertex 0.411186 -0.694197 0.205593
vertex 0.411186 -0.694197 0.287830
vertex 0.411186 -0.776434 0.287830
endloop
endfacet
facet normal 1.000000 0.000000 0.000000
outer loop
vertex 0.411186 -0.694197 0.205593
vertex 0.411186 -0.776434 0.287830
vertex 0.411186 -0.776434 0.205593
endloop
endfacet
facet normal 0.000000 1.000000 0.000000
outer loop
vertex -0.411186 -0.694197 0.205593
vertex -0.411186 -0.694197 0.287830
vertex 0.411186 -0.694197 0.287830
endloop
endfacet
facet normal 0.000000 1.000000 0.000000
outer loop
vertex -0.411186 -0.694197 0.205593
vertex 0.411186 -0.694197 0.287830
vertex 0.411186 -0.694197 0.205593
endloop
endfacet
facet normal -1.000000 0.000000 0.000000
outer loop
vertex -0.411186 -0.776434 0.205593
vertex -0.411186 -0.776434 0.287830
vertex -0.411186 -0.694197 0.287830
endloop
endfacet
facet normal -1.000000 0.000000 0.000000
outer loop
vertex -0.411186 -0.776434 0.205593
vertex -0.411186 -0.694197 0.287830
vertex -0.411186 -0.694197 0.205593
endloop
endfacet
facet normal 0.000000 0.000000 1.000000
outer loop
vertex 0.411186 -0.776434 0.287830
vertex 0.411186 -0.694197 0.287830
vertex -0.411186 -0.694197 0.287830
endloop
endfacet
facet normal 0.000000 0.000000 1.000000
outer loop
vertex 0.411186 -0.776434 0.287830
vertex -0.411186 -0.694197 0.287830
vertex -0.411186 -0.776434 0.287830
endloop
endfacet
facet normal 0.000000 0.000000 -1.000000
outer loop
vertex 0.411186 -0.694197 0.205593
vertex 0.411186 -0.776434 0.205593
vertex -0.411186 -0.776434 0.205593
endloop
endfacet
facet normal 0.000000 0.000000 -1.000000
outer loop
vertex 0.411186 -0.694197 0.205593
vertex -0.411186 -0.776434 0.205593
vertex -0.411186 -0.694197 0.205593
endloop
endfacet
facet normal 0.000000 -1.000000 0.000000
outer loop
vertex 0.041119 -0.740134 0.205593
vertex 0.041119 -0.740134 0.287830
vertex -0.041119 -0.740134 0.287830
endloop
endfacet
facet normal 0.000000 -1.000000 0.000000
outer loop
vertex 0.041119 -0.740134 0.205593
vertex -0.041119 -0.740134 0.287830
vertex -0.041119 -0.740134 0.205593
endloop
endfacet
facet normal 1.000000 0.000000 0.000000
outer loop
vertex 0.041119 0.740134 0.205593
vertex 0.041119 0.740134 0.287830
vertex 0.041119 -0.740134 0.287830
endloop
endfacet
facet normal 1.000000 0.000000 0.000000
outer loop
vertex 0.041119 0.740134 0.205593
vertex 0.041119 -0.740134 0.287830
vertex 0.041119 -0.740134 0.205593
endloop
endfacet
facet normal 0.000000 1.000000 0.000000
outer loop
vertex -0.041119 0.740134 0.205593
vertex -0.041119 0.740134 0.287830
vertex 0.041119 0.740134 0.287830
endloop
endfacet
facet normal 0.000000 1.000000 0.000000
outer loop
vertex -0.041119 0.740134 0.205593
vertex 0.041119 0.740134 0.287830
vertex 0.041119 0.740134 0.205593
endloop
endfacet
facet normal -1.000000 0.000000 0.000000
outer loop
vertex -0.041119 -0.740134 0.205593
vertex -0.041119 -0.740134 0.287830
vertex -0.041119 0.740134 0.287830
endloop
endfacet
facet normal -1.000000 0.000000 0.000000
outer loop
vertex -0.041119 -0.740134 0.205593
vertex -0.041119 0.740134 0.287830
vertex -0.041119 0.740134 0.205593
endloop
endfacet
facet normal 0.000000 -0.000000 1.000000
outer loop
vertex 0.041119 -0.740134 0.287830
vertex 0.041119 0.740134 0.287830
vertex -0.041119 0.740134 0.287830
endloop
endfacet
facet normal 0.000000 -0.000000 1.000000
outer loop
vertex 0.041119 -0.740134 0.287830
vertex -0.041119 0.740134 0.287830
vertex -0.041119 -0.740134 0.287830
endloop
endfacet
facet normal 0.000000 0.000000 -1.000000
outer loop
vertex 0.041119 0.740134 0.205593
vertex 0.041119 -0.740134 0.205593
vertex -0.041119 -0.740134 0.205593
endloop
endfacet
facet normal 0.000000 0.000000 -1.000000
outer loop
vertex 0.041119 0.740134 0.205593
vertex -0.041119 -0.740134 0.205593
vertex -0.041119 0.740134 0.205593
endloop
endfacet
facet normal 0.000000 -1.000000 0.000000
outer loop
vertex 0.575660 -0.904608 0.390771
vertex 0.575660 -0.904608 0.431889
vertex -0.575660 -0.904608 0.431889
endloop
endfacet
facet normal 0.000000 -1.000000 0.000000
outer loop
vertex 0.575660 -0.904608 0.390771
vertex -0.575660 -0.904608 0.431889
vertex -0.575660 -0.904608 0.390771
endloop
endfacet
facet normal 0.000000 1.000000 0.000000
outer loop
vertex -0.575660 0.904608 0.390771
vertex -0.575660 0.904608 0.431890
vertex 0.575660 0.904608 0.431890
endloop
endfacet
facet normal 0.000000 1.000000 0.000000
outer loop
vertex -0.575660 0.904608 0.390771
vertex 0.575660 0.904608 0.431890
vertex 0.575660 0.904608 0.390771
endloop
endfacet
facet normal 0.000000 -0.000000 1.000000
outer loop
vertex 0.575660 -0.904608 0.431889
vertex 0.575660 0.904608 0.431890
vertex -0.575660 0.904608 0.431890
endloop
endfacet
facet normal 0.000000 -0.000000 1.000000
outer loop
vertex 0.575660 -0.904608 0.431889
vertex -0.575660 0.904608 0.431890
vertex -0.575660 -0.904608 0.431889
endloop
endfacet
facet normal 0.000000 0.000000 -1.000000
outer loop
vertex 0.575660 0.904608 0.390771
vertex 0.575660 -0.904608 0.390771
vertex -0.575660 -0.904608 0.390771
endloop
endfacet
facet normal 0.000000 0.000000 -1.000000
outer loop
vertex 0.575660 0.904608 0.390771
vertex -0.575660 -0.904608 0.390771
vertex -0.575660 0.904608 0.390771
endloop
endfacet
facet normal 1.000000 0.000000 0.000000
outer loop
vertex 0.575660 0.904608 0.390771
vertex 0.575660 0.904608 0.431890
vertex 0.575660 -0.904608 0.431889
endloop
endfacet
facet normal 1.000000 0.000000 0.000000
outer loop
vertex 0.575660 0.904608 0.390771
vertex 0.575660 -0.904608 0.431889
vertex 0.575660 -0.904608 0.390771
endloop
endfacet
facet normal -1.000000 0.000000 0.000000
outer loop
vertex -0.575660 -0.904608 0.390771
vertex -0.575660 -0.904608 0.431889
vertex -0.575660 0.904608 0.431890
endloop
endfacet
facet normal -1.000000 0.000000 0.000000
outer loop
vertex -0.575660 -0.904608 0.390771
vertex -0.575660 0.904608 0.431890
vertex -0.575660 0.904608 0.390771
endloop
endfacet
facet normal 0.000000 -1.000000 -0.000000
outer loop
vertex -0.411186 -0.781253 -0.411186
vertex -0.411186 -0.781253 0.411186
vertex -0.493423 -0.781253 0.411186
endloop
endfacet
facet normal 0.000000 -1.000000 -0.000000
outer loop
vertex -0.411186 -0.781253 -0.411186
vertex -0.493423 -0.781253 0.411186
vertex -0.493423 -0.781253 -0.411186
endloop
endfacet
facet normal 1.000000 0.000000 0.000000
outer loop
vertex -0.411186 -0.699015 -0.411186
vertex -0.411186 -0.699016 0.411186
vertex -0.411186 -0.781253 0.411186
endloop
endfacet
facet normal 1.000000 0.000000 0.000000
outer loop
vertex -0.411186 -0.699015 -0.411186
vertex -0.411186 -0.781253 0.411186
vertex -0.411186 -0.781253 -0.411186
endloop
endfacet
facet normal 0.000000 1.000000 0.000000
outer loop
vertex -0.493423 -0.699015 -0.411186
vertex -0.493423 -0.699016 0.411186
vertex -0.411186 -0.699016 0.411186
endloop
endfacet
facet normal 0.000000 1.000000 0.000000
outer loop
vertex -0.493423 -0.699015 -0.411186
vertex -0.411186 -0.699016 0.411186
vertex -0.411186 -0.699015 -0.411186
endloop
endfacet
facet normal -1.000000 0.000000 0.000000
outer loop
vertex -0.493423 -0.781253 -0.411186
vertex -0.493423 -0.781253 0.411186
vertex -0.493423 -0.699016 0.411186
endloop
endfacet
facet normal -1.000000 0.000000 0.000000
outer loop
vertex -0.493423 -0.781253 -0.411186
vertex -0.493423 -0.699016 0.411186
vertex -0.493423 -0.699015 -0.411186
endloop
endfacet
facet normal 0.000000 0.000000 1.000000
outer loop
vertex -0.411186 -0.781253 0.411186
vertex -0.411186 -0.699016 0.411186
vertex -0.493423 -0.699016 0.411186
endloop
endfacet
facet normal 0.000000 0.000000 1.000000
outer loop
vertex -0.411186 -0.781253 0.411186
vertex -0.493423 -0.699016 0.411186
vertex -0.493423 -0.781253 0.411186
endloop
endfacet
facet normal 0.000000 0.000000 -1.000000
outer loop
vertex -0.411186 -0.699015 -0.411186
vertex -0.411186 -0.781253 -0.411186
vertex -0.493423 -0.781253 -0.411186
endloop
endfacet
facet normal 0.000000 0.000000 -1.000000
outer loop
vertex -0.411186 -0.699015 -0.411186
vertex -0.493423 -0.781253 -0.411186
vertex -0.493423 -0.699015 -0.411186
endloop
endfacet
facet normal 0.000000 -1.000000 -0.000000
outer loop
vertex -0.411186 0.699016 -0.411186
vertex -0.411186 0.699015 0.411186
vertex -0.493423 0.699015 0.411186
endloop
endfacet
facet normal 0.000000 -1.000000 -0.000000
outer loop
vertex -0.411186 0.699016 -0.411186
vertex -0.493423 0.699015 0.411186
vertex -0.493423 0.699016 -0.411186
endloop
endfacet
facet normal 1.000000 0.000000 0.000000
outer loop
vertex -0.411186 0.781253 -0.411186
vertex -0.411186 0.781253 0.411186
vertex -0.411186 0.699015 0.411186
endloop
endfacet
facet normal 1.000000 0.000000 0.000000
outer loop
vertex -0.411186 0.781253 -0.411186
vertex -0.411186 0.699015 0.411186
vertex -0.411186 0.699016 -0.411186
endloop
endfacet
facet normal 0.000000 1.000000 0.000000
outer loop
vertex -0.493423 0.781253 -0.411186
vertex -0.493423 0.781253 0.411186
vertex -0.411186 0.781253 0.411186
endloop
endfacet
facet normal 0.000000 1.000000 0.000000
outer loop
vertex -0.493423 0.781253 -0.411186
vertex -0.411186 0.781253 0.411186
vertex -0.411186 0.781253 -0.411186
endloop
endfacet
facet normal -1.000000 0.000000 0.000000
outer loop
vertex -0.493423 0.699016 -0.411186
vertex -0.493423 0.699015 0.411186
vertex -0.493423 0.781253 0.411186
endloop
endfacet
facet normal -1.000000 0.000000 0.000000
outer loop
vertex -0.493423 0.699016 -0.411186
vertex -0.493423 0.781253 0.411186
vertex -0.493423 0.781253 -0.411186
endloop
endfacet
facet normal 0.000000 0.000000 1.000000
outer loop
vertex -0.411186 0.699015 0.411186
vertex -0.411186 0.781253 0.411186
vertex -0.493423 0.781253 0.411186
endloop
endfacet
facet normal 0.000000 0.000000 1.000000
outer loop
vertex -0.411186 0.699015 0.411186
vertex -0.493423 0.781253 0.411186
vertex -0.493423 0.699015 0.411186
endloop
endfacet
facet normal 0.000000 0.000000 -1.000000
outer loop
vertex -0.411186 0.781253 -0.411186
vertex -0.411186 0.699016 -0.411186
vertex -0.493423 0.699016 -0.411186
endloop
endfacet
facet normal 0.000000 0.000000 -1.000000
outer loop
vertex -0.411186 0.781253 -0.411186
vertex -0.493423 0.699016 -0.411186
vertex -0.493423 0.781253 -0.411186
endloop
endfacet
facet normal 0.000000 -1.000000 -0.000000
outer loop
vertex 0.493423 0.699016 -0.411186
vertex 0.493423 0.699015 0.411186
vertex 0.411186 0.699015 0.411186
endloop
endfacet
facet normal 0.000000 -1.000000 -0.000000
outer loop
vertex 0.493423 0.699016 -0.411186
vertex 0.411186 0.699015 0.411186
vertex 0.411186 0.699016 -0.411186
endloop
endfacet
facet normal 1.000000 0.000000 0.000000
outer loop
vertex 0.493423 0.781253 -0.411186
vertex 0.493423 0.781253 0.411186
vertex 0.493423 0.699015 0.411186
endloop
endfacet
facet normal 1.000000 0.000000 0.000000
outer loop
vertex 0.493423 0.781253 -0.411186
vertex 0.493423 0.699015 0.411186
vertex 0.493423 0.699016 -0.411186
endloop
endfacet
facet normal 0.000000 1.000000 0.000000
outer loop
vertex 0.411186 0.781253 -0.411186
vertex 0.411186 0.781253 0.411186
vertex 0.493423 0.781253 0.411186
endloop
endfacet
facet normal 0.000000 1.000000 0.000000
outer loop
vertex 0.411186 0.781253 -0.411186
vertex 0.493423 0.781253 0.411186
vertex 0.493423 0.781253 -0.411186
endloop
endfacet
facet normal -1.000000 0.000000 0.000000
outer loop
vertex 0.411186 0.699016 -0.411186
vertex 0.411186 0.699015 0.411186
vertex 0.411186 0.781253 0.411186
endloop
endfacet
facet normal -1.000000 0.000000 0.000000
outer loop
vertex 0.411186 0.699016 -0.411186
vertex 0.411186 0.781253 0.411186
vertex 0.411186 0.781253 -0.411186
endloop
endfacet
facet normal 0.000000 0.000000 1.000000
outer loop
vertex 0.493423 0.699015 0.411186
vertex 0.493423 0.781253 0.411186
vertex 0.411186 0.781253 0.411186
endloop
endfacet
facet normal 0.000000 0.000000 1.000000
outer loop
vertex 0.493423 0.699015 0.411186
vertex 0.411186 0.781253 0.411186
vertex 0.411186 0.699015 0.411186
endloop
endfacet
facet normal 0.000000 0.000000 -1.000000
outer loop
vertex 0.493423 0.781253 -0.411186
vertex 0.493423 0.699016 -0.411186
vertex 0.411186 0.699016 -0.411186
endloop
endfacet
facet normal 0.000000 0.000000 -1.000000
outer loop
vertex 0.493423 0.781253 -0.411186
vertex 0.411186 0.699016 -0.411186
vertex 0.411186 0.781253 -0.411186
endloop
endfacet
endsolid Exported from Blender-2.80 (sub 75)
